<svg width="68" height="70" viewBox="0 0 68 70" fill="none" xmlns="http://www.w3.org/2000/svg">
<path d="M17.8208 34.4C18.0005 34.5917 18.1708 34.8018 18.3032 35.0171C18.5927 35.488 18.3901 36.0515 18.0616 36.4961C17.6558 37.0453 17.0514 37.4538 16.3707 37.3989C15.7429 37.3483 15.0374 37.1471 14.4964 36.6339C13.9094 36.0771 13.4178 35.2821 13.4178 34.473C13.4178 34.3655 13.6451 34.0561 14.5545 33.679C14.7179 33.591 15.1742 33.4781 15.9283 33.526C16.6451 33.5716 17.3295 33.876 17.8208 34.4Z" fill="#1F1E1E" stroke="#1F1E1E" stroke-width="1.35476"/>
<path d="M28.1545 34.5282C27.9748 34.7199 27.8045 34.9301 27.6721 35.1454C27.3826 35.6163 27.5852 36.1798 27.9137 36.6244C28.3196 37.1736 28.9239 37.5821 29.6046 37.5272C30.2325 37.4766 30.9379 37.2754 31.479 36.7622C32.0659 36.2054 32.5575 35.4103 32.5575 34.6013C32.5575 34.4938 32.3302 34.1844 31.4208 33.8073C31.2575 33.7193 30.8011 33.6063 30.047 33.6543C29.3302 33.6999 28.6458 34.0042 28.1545 34.5282Z" fill="#1F1E1E" stroke="#1F1E1E" stroke-width="1.35476"/>
<path d="M15.8074 36.4134C16.1914 36.9773 17.8647 37.3455 18.7289 35.8148C18.9944 35.0008 18.637 34.7224 18.106 34.1333C17.519 33.482 15.7271 32.9147 15.6349 33.8976C15.5197 35.1262 15.4233 35.8494 15.8074 36.4134Z" fill="#343030" stroke="#343030" stroke-width="0.540661"/>
<path d="M30.3449 36.4134C29.9608 36.9773 28.2875 37.3455 27.4234 35.8148C27.1579 35.0008 27.5153 34.7224 28.0462 34.1333C28.6332 33.482 30.4251 32.9147 30.5173 33.8976C30.6325 35.1262 30.7289 35.8494 30.3449 36.4134Z" fill="#343030" stroke="#343030" stroke-width="0.540661"/>
<ellipse cx="17.3447" cy="34.8645" rx="1.00661" ry="0.926207" fill="white"/>
<ellipse cx="28.6711" cy="34.8645" rx="1.00661" ry="0.926207" fill="white"/>
<path d="M15.5271 48.5702C16.3894 50.5248 19.4839 52.8013 23.3969 52.8013C26.8665 52.8013 29.9294 50.3055 30.8418 48.5702C31.7541 46.8349 30.6463 42.9257 29.7339 41.4542C29.1599 39.926 25.1292 39.6272 23.3969 39.6272C21.4947 39.6272 17.4866 39.9926 16.6714 41.4542C15.9581 42.9287 14.6647 46.6156 15.5271 48.5702Z" fill="#EDB27D"/>
<path d="M19.8461 47.7267C20.2128 48.7312 21.7892 50.3215 23.2715 50.3215C24.7009 50.3215 26.091 49.0436 26.5769 47.7267C26.7645 47.2183 25.1911 45.3377 23.2715 45.4069C21.1185 45.308 19.6677 47.2378 19.8461 47.7267Z" fill="#343030" stroke="#343030" stroke-width="0.558077"/>
<path d="M23.5956 45.1383C25.4813 45.1208 27.045 47.3444 26.8051 47.731C26.8051 48.2121 25.3986 50.0041 24.7778 50.0461C24.0018 50.0985 21.3545 47.7977 21.6446 46.7654C21.7147 46.226 22.087 45.1523 23.5956 45.1383Z" fill="#4E4747" stroke="#4E4747" stroke-width="0.119089"/>
<path d="M17.9089 20.926C14.566 17.8555 7.94744 12.4243 8.21668 15.2632V31.9495L17.9089 20.926Z" fill="#EDB27D"/>
<path d="M8.21668 32.3271V31.9495M8.21668 31.9495V15.2632C7.94744 12.4243 14.566 17.8555 17.9089 20.926L8.21668 31.9495Z" stroke="#FADFBE" stroke-width="2.97723"/>
<path d="M28.4539 20.926C31.7968 17.8555 38.4154 12.4243 38.1461 15.2632V31.9495L28.4539 20.926Z" fill="#EDB27D"/>
<path d="M38.1461 32.3271V31.9495M38.1461 31.9495V15.2632C38.4154 12.4243 31.7968 17.8555 28.4539 20.926L38.1461 31.9495Z" stroke="#FADFBE" stroke-width="2.97723"/>
<path d="M37.5943 25.7096V36.0077C38.1065 35.103 38.7438 34.2144 39.4208 33.3856C40.7755 31.7271 42.3209 30.2696 43.428 29.3546C42.2538 28.3368 40.7311 27.129 39.4476 26.3452C38.6841 25.879 38.0905 25.6173 37.7309 25.5726C37.6709 25.5651 37.6313 25.5654 37.6069 25.5675C37.6007 25.5941 37.5943 25.6389 37.5943 25.7096ZM37.5741 25.5733C37.5742 25.5733 37.5746 25.5732 37.5755 25.5728L37.5741 25.5733ZM37.616 25.5385C37.6177 25.5359 37.6184 25.5344 37.6183 25.5343C37.6182 25.5342 37.6173 25.5355 37.616 25.5385Z" fill="white" stroke="#372F39" stroke-width="1.18864"/>
<path d="M62.46 25.7096V36.0077C61.9478 35.103 61.3106 34.2144 60.6336 33.3856C59.2788 31.7271 57.7335 30.2696 56.6263 29.3546C57.8005 28.3368 59.3232 27.129 60.6067 26.3452C61.3702 25.879 61.9638 25.6173 62.3234 25.5726C62.3834 25.5651 62.4231 25.5654 62.4474 25.5675C62.4536 25.5941 62.46 25.6389 62.46 25.7096ZM62.4802 25.5733C62.4802 25.5733 62.4797 25.5732 62.4788 25.5728L62.4802 25.5733ZM62.4383 25.5385C62.4366 25.5359 62.4359 25.5344 62.436 25.5343C62.4361 25.5342 62.437 25.5355 62.4383 25.5385Z" stroke="#372F39" stroke-width="1.18864"/>
<path d="M52.4516 49.0439C54.7823 49.0073 59.5857 49.3945 61.696 49.5926" stroke="black" stroke-width="0.261382"/>
<path d="M47.2562 49.0439C44.9255 49.0073 40.1221 49.3945 38.0117 49.5926" stroke="black" stroke-width="0.261382"/>
<path d="M52.4519 48.3104C55.0169 47.9859 60.3548 47.7766 62.7031 47.7125" stroke="black" stroke-width="0.261382"/>
<path d="M47.3003 48.3104C44.7353 47.9859 39.3974 47.7766 37.0491 47.7125" stroke="black" stroke-width="0.261382"/>
<path d="M50.3802 51.1478C50.6845 50.9059 52.5129 48.7301 52.1549 48.4398C51.7969 48.1494 47.8355 48.1652 47.5132 48.4398C47.2344 48.6773 48.8157 50.8791 49.1341 51.1478C49.396 51.3688 50.076 51.3897 50.3802 51.1478Z" fill="#372F39"/>
<path d="M46.315 44.0754C47.2871 39.8775 41.6144 38.6046 41.083 41.3098C40.5299 44.1253 42.995 45.943 45.4275 45.0814C45.756 44.9651 45.9886 44.696 46.0555 44.6227C46.1224 44.5493 46.2778 44.2359 46.315 44.0754Z" fill="#372F39"/>
<path d="M53.102 44.0754C52.1299 39.8775 57.8026 38.6046 58.3341 41.3098C58.8872 44.1253 56.422 45.943 53.9896 45.0814C53.6611 44.9651 53.4284 44.696 53.3616 44.6227C53.2947 44.5493 53.1392 44.2359 53.102 44.0754Z" fill="#372F39"/>
<path d="M43.6548 39.9971C43.4214 40.2538 43.3033 43.3799 43.6117 43.8181C43.9975 44.3664 44.6952 44.3428 45.3162 44.1414C45.7374 44.0048 46.151 43.8155 46.2697 43.551C46.3525 43.3667 46.3713 43.0696 46.3713 42.7538C46.2457 40.6592 43.8636 39.7675 43.6548 39.9971Z" fill="#483F4A"/>
<path d="M55.7622 39.9971C55.9956 40.2538 56.1137 43.3799 55.8053 43.8181C55.4194 44.3664 54.7218 44.3428 54.1008 44.1414C53.6796 44.0048 53.266 43.8155 53.1473 43.551C53.0645 43.3667 53.0457 43.0696 53.0457 42.7538C53.1713 40.6592 55.5534 39.7675 55.7622 39.9971Z" fill="#504653"/>
<ellipse cx="45.1077" cy="42.1833" rx="0.589558" ry="0.623034" fill="white"/>
<ellipse rx="0.589558" ry="0.623034" transform="matrix(-1 0 0 1 54.3093 42.1833)" fill="white"/>
<path d="M49.0614 48.2445C49.1148 48.2063 51.4627 48.1689 52.1952 48.413C52.3992 48.903 50.809 50.881 50.4485 51.0151C50.2329 51.0953 48.9431 48.329 49.0614 48.2445Z" fill="#483F4A"/>
</svg>
