<svg width="63" height="42" viewBox="0 0 63 42" fill="none" xmlns="http://www.w3.org/2000/svg">
<path d="M18.2875 21.4731C18.4673 21.6648 18.6376 21.875 18.7699 22.0903C19.0595 22.5612 18.8569 23.1247 18.5284 23.5693C18.1225 24.1185 17.5181 24.527 16.8374 24.4721C16.2096 24.4215 15.5041 24.2203 14.9631 23.7071C14.3761 23.1503 13.8845 22.3552 13.8845 21.5462C13.8845 21.4386 14.1119 21.1293 15.0212 20.7522C15.1846 20.6642 15.6409 20.5512 16.395 20.5992C17.1119 20.6448 17.7962 20.9491 18.2875 21.4731Z" fill="#1F1E1E" stroke="#1F1E1E" stroke-width="1.35476"/>
<path d="M28.6214 21.6014C28.4416 21.7931 28.2713 22.0033 28.139 22.2185C27.8494 22.6894 28.052 23.2529 28.3805 23.6975C28.7864 24.2468 29.3907 24.6553 30.0715 24.6004C30.6993 24.5497 31.4048 24.3485 31.9458 23.8354C32.5328 23.2786 33.0244 22.4835 33.0244 21.6744C33.0244 21.5669 32.797 21.2576 31.8876 20.8804C31.7243 20.7924 31.268 20.6795 30.5139 20.7275C29.797 20.7731 29.1127 21.0774 28.6214 21.6014Z" fill="#1F1E1E" stroke="#1F1E1E" stroke-width="1.35476"/>
<path d="M16.2741 23.4865C16.6582 24.0505 18.3315 24.4186 19.1956 22.8879C19.4611 22.0739 19.1037 21.7955 18.5728 21.2064C17.9858 20.5551 16.1939 19.9879 16.1017 20.9708C15.9865 22.1994 15.8901 22.9226 16.2741 23.4865Z" fill="#343030" stroke="#343030" stroke-width="0.540661"/>
<path d="M30.8116 23.4865C30.4276 24.0505 28.7542 24.4186 27.8901 22.8879C27.6246 22.0739 27.982 21.7955 28.513 21.2064C29.1 20.5551 30.8919 19.9879 30.9841 20.9708C31.0993 22.1994 31.1957 22.9226 30.8116 23.4865Z" fill="#343030" stroke="#343030" stroke-width="0.540661"/>
<ellipse cx="17.8115" cy="21.9376" rx="1.00661" ry="0.926207" fill="white"/>
<ellipse cx="29.1379" cy="21.9376" rx="1.00661" ry="0.926207" fill="white"/>
<path d="M15.9938 35.6433C16.8561 37.5979 19.9506 39.8744 23.8637 39.8744C27.3332 39.8744 30.3962 37.3787 31.3085 35.6433C32.2209 33.908 31.113 29.9989 30.2007 28.5274C29.6266 26.9992 25.596 26.7003 23.8637 26.7003C21.9615 26.7003 17.9534 27.0657 17.1382 28.5274C16.4249 30.0019 15.1315 33.6888 15.9938 35.6433Z" fill="#EDB27D"/>
<path d="M20.3129 34.7998C20.6795 35.8044 22.256 37.3946 23.7383 37.3946C25.1676 37.3946 26.5578 36.1168 27.0437 34.7998C27.2313 34.2914 25.6579 32.4108 23.7383 32.48C21.5852 32.3811 20.1345 34.311 20.3129 34.7998Z" fill="#343030" stroke="#343030" stroke-width="0.558077"/>
<path d="M24.0624 32.2114C25.9482 32.1939 27.5119 34.4176 27.272 34.8041C27.272 35.2853 25.8655 37.0772 25.2446 37.1192C24.4686 37.1717 21.8213 34.8709 22.1115 33.8386C22.1816 33.2991 22.5539 32.2254 24.0624 32.2114Z" fill="#4E4747" stroke="#4E4747" stroke-width="0.119089"/>
<path d="M19.1307 7.99916C15.7878 4.92868 9.16922 -0.502548 9.43845 2.33638V17.2795L19.1307 7.99916Z" fill="#EDB27D" stroke="#E1B796" stroke-width="2.97723"/>
<path d="M27.4305 7.99916C30.7734 4.92868 37.392 -0.502548 37.1228 2.33638V17.2795L27.4305 7.99916Z" fill="#EDB27D" stroke="#E1B796" stroke-width="2.97723"/>
<path d="M37.4399 12.7827V23.0809C37.9521 22.1761 38.5893 21.2876 39.2663 20.4588C40.6211 18.8002 42.1664 17.3428 43.2736 16.4278C42.0994 15.41 40.5767 14.2021 39.2932 13.4183C38.5297 12.9521 37.9361 12.6904 37.5765 12.6457C37.5165 12.6382 37.4768 12.6386 37.4525 12.6407C37.4463 12.6673 37.4399 12.7121 37.4399 12.7827ZM37.4197 12.6465C37.4197 12.6465 37.4202 12.6463 37.4211 12.646L37.4197 12.6465ZM37.4616 12.6116C37.4633 12.6091 37.464 12.6076 37.4639 12.6075C37.4638 12.6074 37.4629 12.6086 37.4616 12.6116Z" fill="white" stroke="#372F39" stroke-width="1.18864"/>
<path d="M62.3056 12.7827V23.0809C61.7934 22.1761 61.1561 21.2876 60.4791 20.4588C59.1244 18.8002 57.579 17.3428 56.4719 16.4278C57.6461 15.41 59.1688 14.2021 60.4523 13.4183C61.2158 12.9521 61.8094 12.6904 62.169 12.6457C62.229 12.6382 62.2686 12.6386 62.293 12.6407C62.2992 12.6673 62.3056 12.7121 62.3056 12.7827ZM62.3258 12.6465C62.3257 12.6465 62.3253 12.6463 62.3244 12.646L62.3258 12.6465ZM62.2839 12.6116C62.2822 12.6091 62.2815 12.6076 62.2816 12.6075C62.2817 12.6074 62.2826 12.6086 62.2839 12.6116Z" stroke="#372F39" stroke-width="1.18864"/>
<path d="M52.2972 36.1171C54.6279 36.0805 59.4313 36.4676 61.5416 36.6657" stroke="black" stroke-width="0.261382"/>
<path d="M47.1018 36.1171C44.7711 36.0805 39.9677 36.4676 37.8574 36.6657" stroke="black" stroke-width="0.261382"/>
<path d="M52.2974 35.3836C54.8625 35.059 60.2003 34.8498 62.5486 34.7857" stroke="black" stroke-width="0.261382"/>
<path d="M47.1459 35.3836C44.5808 35.059 39.243 34.8498 36.8947 34.7857" stroke="black" stroke-width="0.261382"/>
<path d="M50.2259 38.2209C50.5301 37.979 52.3585 35.8033 52.0005 35.5129C51.6425 35.2226 47.6811 35.2383 47.3588 35.5129C47.08 35.7505 48.6614 37.9522 48.9798 38.2209C49.2417 38.4419 49.9216 38.4628 50.2259 38.2209Z" fill="#372F39"/>
<path d="M46.1606 31.1486C47.1327 26.9507 41.46 25.6777 40.9286 28.3829C40.3755 31.1985 42.8406 33.0161 45.273 32.1546C45.6016 32.0382 45.8342 31.7691 45.9011 31.6958C45.9679 31.6225 46.1234 31.3091 46.1606 31.1486Z" fill="#372F39"/>
<path d="M52.9476 31.1486C51.9755 26.9507 57.6482 25.6777 58.1796 28.3829C58.7327 31.1985 56.2676 33.0161 53.8352 32.1546C53.5066 32.0382 53.274 31.7691 53.2071 31.6958C53.1403 31.6225 52.9848 31.3091 52.9476 31.1486Z" fill="#372F39"/>
<path d="M43.5004 27.0703C43.267 27.327 43.1489 30.4531 43.4573 30.8913C43.8431 31.4396 44.5407 31.4159 45.1618 31.2145C45.583 31.0779 45.9966 30.8886 46.1153 30.6241C46.198 30.4399 46.2168 30.1428 46.2168 29.8269C46.0912 27.7323 43.7092 26.8407 43.5004 27.0703Z" fill="#483F4A"/>
<path d="M55.6078 27.0703C55.8412 27.327 55.9593 30.4531 55.651 30.8913C55.2651 31.4396 54.5675 31.4159 53.9465 31.2145C53.5252 31.0779 53.1117 30.8886 52.9929 30.6241C52.9102 30.4399 52.8914 30.1428 52.8914 29.8269C53.017 27.7323 55.3991 26.8407 55.6078 27.0703Z" fill="#504653"/>
<ellipse cx="44.9533" cy="29.2565" rx="0.589558" ry="0.623034" fill="white"/>
<ellipse rx="0.589558" ry="0.623034" transform="matrix(-1 0 0 1 54.1548 29.2565)" fill="white"/>
<path d="M48.9069 35.3176C48.9604 35.2795 51.3083 35.2421 52.0407 35.4862C52.2447 35.9761 50.6546 37.9542 50.294 38.0883C50.0785 38.1685 48.7886 35.4022 48.9069 35.3176Z" fill="#483F4A"/>
</svg>
