<svg width="300" height="205" viewBox="-34 0 350 205" fill="none" xmlns="http://www.w3.org/2000/svg">
<path d="M126 37L26 37C16.5719 37 11.8578 37 8.92892 39.9289C5.99999 42.8579 5.99999 47.5719 5.99998 57L5.99998 178.999C5.99998 188.427 5.99998 193.141 8.92891 196.07C11.8578 198.999 16.5719 198.999 26 198.999L224 198.999" stroke="#6868EE" stroke-width="9" stroke-linecap="round"/>
<path d="M105.5 118C105.5 137.959 88.4673 154.5 67 154.5C45.5327 154.5 28.5 137.959 28.5 118C28.5 98.0412 45.5327 81.5 67 81.5C88.4673 81.5 105.5 98.0412 105.5 118Z" stroke="#6868EE" stroke-width="9"/>
<line x1="28.5" y1="22.5" x2="68.5" y2="22.5" stroke="#6868EE" stroke-width="9" stroke-linecap="round"/>
<path d="M295.5 81.5C295.5 123.949 260.432 158.5 217 158.5C173.568 158.5 138.5 123.949 138.5 81.5C138.5 39.0511 173.568 4.5 217 4.5C260.432 4.5 295.5 39.0511 295.5 81.5Z" stroke="#6868EE" stroke-width="9"/>
<line x1="218.5" y1="127.544" x2="218.5" y2="40.5" stroke="#6868EE" stroke-width="15" stroke-linecap="round"/>
<line x1="172.5" y1="84.5" x2="264.505" y2="84.5" stroke="#6868EE" stroke-width="15" stroke-linecap="round"/>
<path d="M8 171H229V200H8V171Z" fill="#6868EE"/>
</svg>
