<svg width="18" height="19" viewBox="0 0 18 19" fill="none" xmlns="http://www.w3.org/2000/svg">
<circle cx="9.12363" cy="10.0009" r="8.52359" fill="#FFCE3E"/>
<path d="M17.6472 10.2154C17.6472 14.9298 14.1246 16.5575 9.41029 16.5575C5.70979 16.5575 2.13483 13.0754 2.13483 10.2154C2.13483 5.50109 4.29793 1.38983 9.01228 1.38983C13.7266 1.38983 17.6472 5.50109 17.6472 10.2154Z" fill="#F7D160"/>
<path d="M0.988844 0.489777V7.22781C1.32398 6.63583 1.74093 6.05446 2.18388 5.51217C3.07029 4.42698 4.08139 3.4734 4.80577 2.87471C4.03751 2.20878 3.04123 1.41847 2.20144 0.905657C1.70188 0.600605 1.3135 0.429387 1.0782 0.400129C1.03895 0.395249 1.01303 0.395453 0.997066 0.396838C0.993022 0.414245 0.988844 0.443555 0.988844 0.489777ZM1.00453 0.375114C1.00447 0.375042 1.0039 0.375871 1.00302 0.377818C1.00415 0.37616 1.00459 0.375186 1.00453 0.375114Z" fill="#FF9B42" stroke="#FFCE3E" stroke-width="0.77772"/>
<path d="M17.2583 0.489777V7.22781C16.9232 6.63583 16.5063 6.05446 16.0633 5.51217C15.1769 4.42698 14.1658 3.4734 13.4414 2.87471C14.2097 2.20878 15.206 1.41847 16.0458 0.905657C16.5453 0.600605 16.9337 0.429387 17.169 0.400129C17.2082 0.395249 17.2342 0.395453 17.2501 0.396838C17.2542 0.414245 17.2583 0.443555 17.2583 0.489777ZM17.2427 0.375114C17.2427 0.375042 17.2433 0.375871 17.2442 0.377818C17.243 0.37616 17.2426 0.375186 17.2427 0.375114Z" fill="#FF9B42" stroke="#F7D160" stroke-width="0.77772"/>
<path d="M10.7099 15.7573C12.2349 15.7333 15.3777 15.9866 16.7585 16.1162" stroke="black" stroke-width="0.17102"/>
<path d="M7.31062 15.7573C5.78563 15.7333 2.64281 15.9866 1.26202 16.1162" stroke="black" stroke-width="0.17102"/>
<path d="M10.7101 15.2774C12.3884 15.065 15.8809 14.9281 17.4174 14.8862" stroke="black" stroke-width="0.17102"/>
<path d="M7.33946 15.2774C5.66117 15.065 2.16864 14.9281 0.632165 14.8862" stroke="black" stroke-width="0.17102"/>
<path d="M9.35461 17.1338C9.55367 16.9755 10.75 15.552 10.5157 15.362C10.2815 15.172 7.68959 15.1823 7.47873 15.362C7.29632 15.5174 8.33097 16.958 8.53931 17.1338C8.71065 17.2784 9.15554 17.2921 9.35461 17.1338Z" fill="#372F39"/>
<path d="M6.69476 12.5064C7.3308 9.75975 3.61919 8.92687 3.27149 10.6969C2.90959 12.5391 4.5225 13.7283 6.11403 13.1646C6.32899 13.0885 6.4812 12.9124 6.52495 12.8645C6.5687 12.8165 6.67043 12.6114 6.69476 12.5064Z" fill="#372F39"/>
<path d="M11.1354 12.5064C10.4994 9.75975 14.211 8.92687 14.5587 10.6969C14.9206 12.5391 13.3077 13.7283 11.7162 13.1646C11.5012 13.0885 11.349 12.9124 11.3053 12.8645C11.2615 12.8165 11.1598 12.6114 11.1354 12.5064Z" fill="#372F39"/>
<path d="M4.95423 9.83802C4.80152 10.006 4.72424 12.0514 4.926 12.3381C5.17846 12.6968 5.6349 12.6813 6.04123 12.5496C6.31685 12.4602 6.58744 12.3363 6.66514 12.1633C6.71927 12.0427 6.73157 11.8483 6.73157 11.6417C6.64939 10.2712 5.09081 9.68779 4.95423 9.83802Z" fill="#483F4A"/>
<path d="M12.876 9.83802C13.0287 10.006 13.106 12.0514 12.9042 12.3381C12.6517 12.6968 12.1953 12.6813 11.789 12.5496C11.5134 12.4602 11.2428 12.3363 11.1651 12.1633C11.1109 12.0427 11.0986 11.8483 11.0986 11.6417C11.1808 10.2712 12.7394 9.68779 12.876 9.83802Z" fill="#504653"/>
<ellipse cx="5.90485" cy="11.2684" rx="0.385744" ry="0.407647" fill="white"/>
<ellipse rx="0.385744" ry="0.407647" transform="matrix(-1 0 0 1 11.9254 11.2684)" fill="white"/>
<path d="M8.49176 15.2342C8.52671 15.2092 10.0629 15.1847 10.5422 15.3445C10.6757 15.665 9.63521 16.9593 9.39932 17.047C9.25829 17.0995 8.41433 15.2895 8.49176 15.2342Z" fill="#483F4A"/>
</svg>
