<svg width="33" height="33" viewBox="0 0 33 33" fill="none" xmlns="http://www.w3.org/2000/svg">
<path fill-rule="evenodd" clip-rule="evenodd" d="M31.0537 1.56449C32.4758 2.68497 32.6191 4.63049 31.3736 5.90992L6.21937 31.751C4.97394 33.0304 2.81147 33.1593 1.38935 32.0388C-0.0327606 30.9183 -0.175989 28.9728 1.06944 27.6934L26.2237 1.8523C27.4691 0.572865 29.6316 0.444006 31.0537 1.56449Z" fill="#C40000"/>
<path fill-rule="evenodd" clip-rule="evenodd" d="M1.38873 1.68402C2.81046 0.562349 4.9731 0.690581 6.21911 1.97044L31.373 27.8075C32.619 29.0874 32.4766 31.0342 31.0549 32.1559C29.6331 33.2776 27.4705 33.1493 26.2245 31.8695L1.07057 6.03237C-0.175447 4.75252 -0.0329997 2.8057 1.38873 1.68402Z" fill="#C40000"/>
</svg>
