<svg width="33" height="33" viewBox="0 0 33 33" fill="none" xmlns="http://www.w3.org/2000/svg">
<path d="M31.7402 5.37241C31.7402 5.89689 31.4242 6.4748 30.672 7.07198C29.925 7.66501 28.8131 8.22102 27.3948 8.69728C24.5632 9.64806 20.6194 10.2448 16.2402 10.2448C11.861 10.2448 7.91728 9.64806 5.08567 8.69728C3.66729 8.22102 2.55548 7.66501 1.80846 7.07198C1.0562 6.4748 0.740219 5.89689 0.740219 5.37241C0.740219 4.84792 1.0562 4.27001 1.80846 3.67283C2.55548 3.0798 3.66729 2.52379 5.08567 2.04753C7.91728 1.09675 11.861 0.5 16.2402 0.5C20.6194 0.5 24.5632 1.09675 27.3948 2.04753C28.8131 2.52379 29.925 3.0798 30.672 3.67283C31.4242 4.27001 31.7402 4.84792 31.7402 5.37241Z" stroke="#6868EE"/>
<path d="M31.8156 12.3194C31.8156 15.2865 24.8417 17.6918 16.2389 17.6918C7.63615 17.6918 0.662239 15.2865 0.662239 12.3194" stroke="#6868EE"/>
<path d="M31.8156 26.6276C31.8156 29.5947 24.8417 32 16.2389 32C7.63615 32 0.662239 29.5947 0.662239 26.6276" stroke="#6868EE"/>
<path d="M0.662333 26.7381L0.640076 5.29073" stroke="#6868EE"/>
<path d="M31.8156 19.4735C31.8156 22.517 24.8417 24.9842 16.2389 24.9842C7.63615 24.9842 0.662239 22.517 0.662239 19.4735" stroke="#6868EE"/>
<path d="M31.8156 26.7381V11.0699V5.3724" stroke="#6868EE"/>
<ellipse cx="28.6714" cy="11.805" rx="1.91308" ry="1.8475" fill="#6868EE"/>
<ellipse cx="28.6714" cy="25.9766" rx="1.91308" ry="1.8475" fill="#6868EE"/>
<ellipse cx="28.6714" cy="18.8908" rx="1.91308" ry="1.8475" fill="#6868EE"/>
</svg>
