<svg width="25" height="30" viewBox="0 0 25 30" fill="none" xmlns="http://www.w3.org/2000/svg">
<circle cx="12.6281" cy="17.662" r="11.963" fill="#FAD7AB"/>
<path d="M24.591 17.662C24.591 24.269 19.235 27.6395 12.628 27.6395C7.70948 27.6395 3.03436 23.2812 3.03436 17.662C3.03436 11.055 6.02108 5.69904 12.628 5.69904C19.235 5.69904 24.591 11.055 24.591 17.662Z" fill="#FADFBE"/>
<path d="M8.76616 16.4734C8.89493 16.6108 9.01692 16.7613 9.11174 16.9155C9.31916 17.2529 9.17403 17.6565 8.93869 17.975C8.64794 18.3685 8.215 18.6611 7.72736 18.6218C7.2776 18.5855 6.77222 18.4414 6.38465 18.0738C5.96415 17.6749 5.612 17.1054 5.612 16.5258C5.612 16.4487 5.77486 16.2271 6.42631 15.957C6.54333 15.8939 6.87023 15.813 7.41043 15.8474C7.92396 15.8801 8.41421 16.0981 8.76616 16.4734Z" fill="#1F1E1E" stroke="#1F1E1E" stroke-width="0.970506"/>
<path d="M16.169 16.5653C16.0402 16.7027 15.9182 16.8532 15.8234 17.0074C15.616 17.3448 15.7611 17.7484 15.9964 18.0669C16.2872 18.4604 16.7201 18.753 17.2078 18.7137C17.6575 18.6774 18.1629 18.5333 18.5505 18.1657C18.971 17.7668 19.3231 17.1972 19.3231 16.6176C19.3231 16.5406 19.1603 16.319 18.5088 16.0489C18.3918 15.9858 18.0649 15.9049 17.5247 15.9393C17.0112 15.972 16.5209 16.19 16.169 16.5653Z" fill="#1F1E1E" stroke="#1F1E1E" stroke-width="0.970506"/>
<path d="M7.32381 17.9158C7.59893 18.3198 8.79766 18.5835 9.41669 17.4869C9.60688 16.9038 9.35085 16.7044 8.97048 16.2824C8.54999 15.8158 7.26632 15.4095 7.20029 16.1136C7.11776 16.9937 7.04869 17.5118 7.32381 17.9158Z" fill="#343030" stroke="#343030" stroke-width="0.387311"/>
<path d="M17.738 17.9158C17.4629 18.3198 16.2642 18.5835 15.6451 17.4869C15.455 16.9038 15.711 16.7044 16.0913 16.2824C16.5118 15.8158 17.7955 15.4095 17.8615 16.1136C17.9441 16.9937 18.0131 17.5118 17.738 17.9158Z" fill="#343030" stroke="#343030" stroke-width="0.387311"/>
<ellipse cx="8.42514" cy="16.8062" rx="0.721104" ry="0.663504" fill="white"/>
<ellipse cx="16.539" cy="16.8062" rx="0.721104" ry="0.663504" fill="white"/>
<path d="M7.12306 26.6245C7.74081 28.0247 9.9576 29.6555 12.7608 29.6555C15.2463 29.6555 17.4404 27.8677 18.094 26.6245C18.7476 25.3814 17.954 22.581 17.3004 21.5269C16.8892 20.4321 14.0017 20.218 12.7608 20.218C11.3981 20.218 8.52683 20.4798 7.94284 21.5269C7.43185 22.5832 6.50532 25.2243 7.12306 26.6245Z" fill="#EDB27D"/>
<path d="M10.217 26.0202C10.4797 26.7399 11.609 27.8791 12.6709 27.8791C13.6948 27.8791 14.6907 26.9637 15.0387 26.0202C15.1731 25.656 14.046 24.3088 12.6709 24.3584C11.1285 24.2876 10.0892 25.67 10.217 26.0202Z" fill="#343030" stroke="#343030" stroke-width="0.399788"/>
<path d="M12.9031 24.166C14.254 24.1534 15.3742 25.7464 15.2023 26.0233C15.2023 26.368 14.1948 27.6517 13.75 27.6818C13.1941 27.7194 11.2977 26.0711 11.5055 25.3316C11.5557 24.9452 11.8225 24.176 12.9031 24.166Z" fill="#4E4747" stroke="#4E4747" stroke-width="0.0853115"/>
<path d="M15.8508 6.36682C18.5551 4.07804 23.8886 0.0518401 23.5888 2.25733L23.0607 15.2705L15.8508 6.36682Z" fill="#EDB27D"/>
<path d="M23.0488 15.565L23.0607 15.2705M23.0607 15.2705L23.5888 2.25733C23.8886 0.0518401 18.5551 4.07804 15.8508 6.36682L23.0607 15.2705Z" stroke="#FADFBE" stroke-width="2.32378"/>
<path d="M9.25938 6.36676C6.55513 4.07798 1.22158 0.0517791 1.52141 2.25727L2.04953 15.2705L9.25938 6.36676Z" fill="#EDB27D"/>
<path d="M2.06148 15.5649L2.04953 15.2705M2.04953 15.2705L1.52141 2.25727C1.22158 0.0517791 6.55513 4.07798 9.25938 6.36676L2.04953 15.2705Z" stroke="#FADFBE" stroke-width="2.32378"/>
</svg>
