<svg width="33" height="31" viewBox="0 0 33 31" fill="none" xmlns="http://www.w3.org/2000/svg">
<path d="M5.04979 19.0611L5.12377 18.8796V18.6836V4.08098C5.12377 3.32295 5.61436 3 5.88826 3H28.2355C28.5094 3 29 3.32294 29 4.08098V25.0272C29 25.7852 28.5094 26.1082 28.2355 26.1082H5.88826C5.78259 26.1082 5.68512 26.1176 5.62317 26.1241C5.60386 26.1261 5.57978 26.1288 5.56006 26.1309C5.55035 26.132 5.54169 26.1329 5.53518 26.1336C5.52552 26.1347 5.51684 26.1356 5.50892 26.1364L5.29718 26.0494L4.95956 26.1491L2.20027 26.9638C2.14414 26.9273 2.09352 26.8782 2.05924 26.8221C2.02647 26.7684 1.99037 26.6806 2.00233 26.5242C2.01517 26.3565 2.08734 26.073 2.34449 25.6596L2.38932 25.5875L2.42136 25.5089L5.04979 19.0611ZM2.28264 27.0063C2.28703 27.0073 2.28918 27.0081 2.28915 27.0082C2.28913 27.0083 2.28693 27.0078 2.28264 27.0063Z" stroke="#3B72E1" stroke-width="2"/>
<path fill-rule="evenodd" clip-rule="evenodd" d="M26.7352 11.1265L8.05591 11.2702L8.04427 9.15882L26.7236 9.01506L26.7352 11.1265ZM26.7374 15.3493L8.05812 15.4931L8.04647 13.3817L26.7258 13.2379L26.7374 15.3493ZM26.7399 19.9945L8.06054 20.1383L8.0489 18.0269L26.7282 17.8831L26.7399 19.9945Z" fill="#3B72E1"/>
</svg>
