<svg width="32" height="30" viewBox="0 0 32 30" fill="none" xmlns="http://www.w3.org/2000/svg">
<path fill-rule="evenodd" clip-rule="evenodd" d="M6.26432 1.80967C5.27725 1.80967 4.47708 2.75499 4.47708 3.92111V18.7375L1.81476 25.2798C0.52284 27.3604 2.07848 28.2133 2.55252 28.1899L5.61047 27.2854C5.79467 27.3613 6.05824 27.2854 6.26432 27.2854H28.8997C29.8868 27.2854 30.687 26.3401 30.687 25.174V3.92111C30.687 2.755 29.8868 1.80967 28.8997 1.80967H6.26432Z" fill="#6868EE"/>
<path fill-rule="evenodd" clip-rule="evenodd" d="M28.2273 10.0148L7.59602 10.1736L7.58437 8.0622L28.2157 7.90341L28.2273 10.0148ZM28.2273 14.2377L7.59602 14.3965L7.58437 12.2851L28.2157 12.1263L28.2273 14.2377ZM28.2274 18.8829L7.59602 19.0417L7.58438 16.9303L28.2157 16.7715L28.2274 18.8829Z" fill="white"/>
</svg>
