<svg width="32" height="32" viewBox="0 0 32 32" fill="none" xmlns="http://www.w3.org/2000/svg">
<path d="M1.56116 6.885C1.56116 3.08253 4.41373 7.62939e-06 7.93255 7.62939e-06H24.0675C27.5863 7.62939e-06 30.4389 3.08252 30.4389 6.885V25.115C30.4389 28.9175 27.5863 32 24.0675 32H7.93255C4.41372 32 1.56116 28.9175 1.56116 25.115V6.885Z" fill="#6868EE"/>
<path d="M15.5004 25.469H13.1339L15.6056 11.5969H17.9721L15.5004 25.469ZM17.4594 6.53264C17.8625 6.51554 18.1956 6.6352 18.4585 6.89162C18.7303 7.13949 18.8661 7.46855 18.8661 7.87882C18.8573 8.28054 18.7215 8.60961 18.4585 8.86602C18.2044 9.12244 17.8713 9.25919 17.4594 9.27629C17.0474 9.29338 16.71 9.178 16.447 8.93013C16.1841 8.68226 16.057 8.35746 16.0658 7.95575C16.0745 7.55403 16.206 7.22069 16.4602 6.95572C16.7144 6.69076 17.0474 6.54973 17.4594 6.53264Z" fill="white"/>
</svg>
