<svg width="33" height="32" viewBox="0 0 33 32" fill="none" xmlns="http://www.w3.org/2000/svg">
<path d="M8.3862 1.00001H24.5211C27.4161 1.00001 29.8925 3.56039 29.8925 6.885V25.115C29.8925 28.4396 27.4161 31 24.5211 31H8.38619C5.49124 31 3.0148 28.4396 3.0148 25.115V6.885C3.0148 3.5604 5.49124 1.00001 8.3862 1.00001Z" stroke="#3B72E1" stroke-width="2"/>
<path d="M15.9541 25.469H13.5876L16.0592 11.5969H18.4257L15.9541 25.469ZM17.913 6.53264C18.3162 6.51554 18.6492 6.6352 18.9122 6.89162C19.1839 7.13949 19.3198 7.46855 19.3198 7.87882C19.311 8.28054 19.1751 8.60961 18.9122 8.86602C18.658 9.12244 18.325 9.25919 17.913 9.27629C17.5011 9.29338 17.1636 9.178 16.9007 8.93013C16.6377 8.68226 16.5106 8.35746 16.5194 7.95575C16.5282 7.55403 16.6596 7.22069 16.9138 6.95572C17.168 6.69076 17.5011 6.54973 17.913 6.53264Z" fill="#3B72E1"/>
</svg>
