<svg width="32" height="32" viewBox="0 0 32 32" fill="none" xmlns="http://www.w3.org/2000/svg">
<path fill-rule="evenodd" clip-rule="evenodd" d="M15.8862 28.8497C23.0023 28.8497 28.771 23.0967 28.771 16C28.771 8.9033 23.0023 3.15029 15.8862 3.15029C8.77018 3.15029 3.00148 8.9033 3.00148 16C3.00148 23.0967 8.77018 28.8497 15.8862 28.8497ZM15.8862 30.441C23.8835 30.441 30.3666 23.9755 30.3666 16C30.3666 8.02446 23.8835 1.55901 15.8862 1.55901C7.88894 1.55901 1.40587 8.02446 1.40587 16C1.40587 23.9755 7.88894 30.441 15.8862 30.441Z" fill="#6868EE"/>
<path d="M4.36155 16C4.36155 17.2878 3.38518 18.3318 2.18077 18.3318C0.976365 18.3318 0 17.2878 0 16C0 14.7122 0.976365 13.6682 2.18077 13.6682C3.38518 13.6682 4.36155 14.7122 4.36155 16Z" fill="#6868EE"/>
<path d="M22.2776 16.6343C22.2776 20.0477 19.4161 22.8148 15.8862 22.8148C12.3563 22.8148 9.49478 20.0477 9.49478 16.6343C9.49478 13.221 12.3563 10.4539 15.8862 10.4539C19.4161 10.4539 22.2776 13.221 22.2776 16.6343Z" fill="#6868EE"/>
<path d="M18.067 29.6682C18.067 30.956 17.0907 32 15.8862 32C14.6818 32 13.7055 30.956 13.7055 29.6682C13.7055 28.3804 14.6818 27.3364 15.8862 27.3364C17.0907 27.3364 18.067 28.3804 18.067 29.6682Z" fill="#6868EE"/>
<path d="M18.067 2.33182C18.067 3.61964 17.0907 4.66363 15.8862 4.66363C14.6818 4.66363 13.7055 3.61964 13.7055 2.33182C13.7055 1.04399 14.6818 0 15.8862 0C17.0907 0 18.067 1.04399 18.067 2.33182Z" fill="#6868EE"/>
<path d="M32 16C32 17.2878 31.0236 18.3318 29.8192 18.3318C28.6148 18.3318 27.6385 17.2878 27.6385 16C27.6385 14.7122 28.6148 13.6682 29.8192 13.6682C31.0236 13.6682 32 14.7122 32 16Z" fill="#6868EE"/>
<path d="M9.96156 8.96039L15.8345 12.8614L9.79724 15.9957L9.96156 8.96039Z" fill="#6868EE"/>
<path d="M21.5526 15.9353L15.6797 12.0342L21.7169 8.89998L21.5526 15.9353Z" fill="#6868EE"/>
</svg>
