<svg width="33" height="32" viewBox="0 0 33 32" fill="none" xmlns="http://www.w3.org/2000/svg">
<path fill-rule="evenodd" clip-rule="evenodd" d="M16.3399 28.8497C23.4559 28.8497 29.2246 23.0967 29.2246 16C29.2246 8.9033 23.4559 3.15029 16.3399 3.15029C9.22382 3.15029 3.45513 8.9033 3.45513 16C3.45513 23.0967 9.22382 28.8497 16.3399 28.8497ZM16.3399 30.441C24.3371 30.441 30.8202 23.9755 30.8202 16C30.8202 8.02446 24.3371 1.55901 16.3399 1.55901C8.34259 1.55901 1.85951 8.02446 1.85951 16C1.85951 23.9755 8.34259 30.441 16.3399 30.441Z" fill="#3B72E1"/>
<path d="M4.81519 16C4.81519 17.2878 3.83882 18.3318 2.63442 18.3318C1.43001 18.3318 0.453644 17.2878 0.453644 16C0.453644 14.7122 1.43001 13.6682 2.63442 13.6682C3.83882 13.6682 4.81519 14.7122 4.81519 16Z" fill="#3B72E1"/>
<path d="M22.7313 16.6343C22.7313 20.0477 19.8697 22.8148 16.3398 22.8148C12.81 22.8148 9.94843 20.0477 9.94843 16.6343C9.94843 13.221 12.81 10.4539 16.3398 10.4539C19.8697 10.4539 22.7313 13.221 22.7313 16.6343Z" fill="#3B72E1"/>
<path d="M18.5207 29.6682C18.5207 30.956 17.5443 32 16.3399 32C15.1355 32 14.1591 30.956 14.1591 29.6682C14.1591 28.3804 15.1355 27.3364 16.3399 27.3364C17.5443 27.3364 18.5207 28.3804 18.5207 29.6682Z" fill="#3B72E1"/>
<path d="M18.5207 2.33182C18.5207 3.61964 17.5443 4.66363 16.3399 4.66363C15.1355 4.66363 14.1591 3.61964 14.1591 2.33182C14.1591 1.04399 15.1355 0 16.3399 0C17.5443 0 18.5207 1.04399 18.5207 2.33182Z" fill="#3B72E1"/>
<path d="M32.4536 16C32.4536 17.2878 31.4773 18.3318 30.2729 18.3318C29.0685 18.3318 28.0921 17.2878 28.0921 16C28.0921 14.7122 29.0685 13.6682 30.2729 13.6682C31.4773 13.6682 32.4536 14.7122 32.4536 16Z" fill="#3B72E1"/>
<path d="M10.4152 8.96039L16.2881 12.8614L10.2509 15.9957L10.4152 8.96039Z" fill="#3B72E1"/>
<path d="M22.0063 15.9353L16.1334 12.0342L22.1706 8.89998L22.0063 15.9353Z" fill="#3B72E1"/>
</svg>
