<svg width="33" height="36" viewBox="0 0 33 36" fill="none" xmlns="http://www.w3.org/2000/svg">
<path fill-rule="evenodd" clip-rule="evenodd" d="M8.85518 5.9325C6.9312 7.56771 5.53025 10.0895 5.39164 13.662L1.83502 13.5315C2.00804 9.07212 3.80142 5.63081 6.51311 3.32611C9.19748 1.04464 12.6743 -0.0334811 16.0973 0.000791627C22.9583 0.069487 29.9683 4.66672 30.323 13.5295L26.7665 13.6641C26.4978 6.94974 21.3538 3.51502 16.0607 3.46202C13.4067 3.43545 10.8065 4.27405 8.85518 5.9325Z" fill="#3B72E1"/>
<path d="M32.079 14.6928H0.0789871V35.0317H32.079V14.6928Z" fill="#3B72E1"/>
<path d="M14.9623 25.1551L13.1254 24.6227L13.4052 23.7295L15.2421 24.392L15.1874 22.357H16.118L16.0572 24.4216L17.8637 23.7709L18.1435 24.67L16.2761 25.2083L17.4805 26.8114L16.7262 27.3675L15.5949 25.6638L14.5 27.3261L13.7397 26.7877L14.9623 25.1551Z" fill="white"/>
</svg>
