<svg width="33" height="36" viewBox="0 0 33 36" fill="none" xmlns="http://www.w3.org/2000/svg">
<path fill-rule="evenodd" clip-rule="evenodd" d="M8.93417 5.9325C7.01019 7.56771 5.60924 10.0895 5.47063 13.662L1.91401 13.5315C2.08703 9.07212 3.8804 5.63081 6.5921 3.32611C9.27646 1.04464 12.7533 -0.0334811 16.1763 0.000791627C23.0373 0.069487 30.0473 4.66672 30.4019 13.5295L26.8455 13.6641C26.5768 6.94974 21.4328 3.51502 16.1397 3.46202C13.4857 3.43545 10.8855 4.27405 8.93417 5.9325Z" fill="#6868EE"/>
<path d="M32.158 14.6928H0.157974V35.0318H32.158V14.6928Z" fill="#6868EE"/>
<path d="M15.0413 25.1551L13.2044 24.6227L13.4842 23.7295L15.3211 24.392L15.2663 22.357H16.197L16.1362 24.4216L17.9427 23.7709L18.2225 24.67L16.3551 25.2083L17.5595 26.8114L16.8052 27.3675L15.6739 25.6638L14.579 27.3261L13.8187 26.7877L15.0413 25.1551Z" fill="white"/>
</svg>
