<svg width="51" height="35" viewBox="0 0 51 35" fill="none" xmlns="http://www.w3.org/2000/svg">
<path d="M31.408 10.5855V10.5855C31.308 9.23491 33.0286 7.87533 32.4932 6.63139C31.4666 4.24637 29.2602 1.8287 27.1159 1.84802C24.6065 1.87063 23.5439 3.11403 22.3457 3.11403C21.1475 3.11403 18.8868 2.36799 17.0782 2.36799C15.2018 2.27756 14.1619 3.11403 11.969 3.11403C10.2056 3.13664 9.95742 1.89981 7.69619 1.87063C4.70709 1.83206 2.32665 5.1822 1.69146 7.76751C1.4989 8.55128 1.97769 9.24677 2.3354 9.97025C2.47086 10.2442 2.56433 10.5866 2.56433 11.0266C2.5126 12.5266 2.52319 15.7018 2.96694 16.6261C2.98402 16.6617 2.99372 16.7145 2.99619 16.7539V16.7539C3.01429 17.0422 6.3366 19.4205 6.47404 19.6746C7.46719 21.5106 8.9423 23.4173 9.93214 23.9061C10.1749 24.026 10.4223 24.1998 10.5613 24.4322C10.6503 24.5811 10.7602 24.7372 10.8826 24.8797C11.2781 25.3401 11.8429 25.7996 12.1384 26.3299C12.2973 26.6152 12.4899 26.9125 12.7115 27.1947C13.682 28.4304 15.6441 29.9988 17.2148 30.0382C17.5532 30.0466 17.8939 30.0113 18.2058 29.9316C19.3849 29.6302 20.271 28.3234 21.2596 27.6137C22.4801 26.7375 23.743 25.4374 23.743 24.0258M31.408 10.5855L30.379 9.72579M31.408 10.5855C31.8932 10.4795 32.6526 10.6583 33.0842 10.5855M23.743 24.0258C23.743 24.4655 23.8032 26.361 25.0867 28.0435M23.743 24.0258C23.668 22.687 23.885 20.4906 24.2926 19.0808C24.5457 18.2056 25.1189 16.9853 25.0867 16.0748V16.0748V8.6255C25.068 7.91858 24.8229 5.76481 25.9455 6.7086L30.379 9.72579M45.5314 28.1995C43.6127 31.2758 40.0975 33.5535 35.5875 33.4876C30.6268 33.4876 27.2214 30.7478 25.2509 28.2549M45.5314 28.1995C45.6281 28.0446 45.5542 28.1799 45.6432 28.0201M45.5314 28.1995C45.5314 28.1995 50.9856 30.054 45.6432 28.0201M46.5972 25.8497C47.357 23.4963 47.4024 20.8325 46.6177 18.2114C46.5239 17.8982 46.4677 17.5742 46.4677 17.2472V7.40942C46.4677 6.82163 46.0608 6.14341 45.2243 6.7086L40.9752 10.1452C40.1002 10.8528 38.9278 10.9368 37.8458 10.6276C36.7837 10.3241 35.3937 10.1962 33.0842 10.5855M46.5972 25.8497C51.8571 27.8358 46.6421 25.7075 46.6421 25.7075M46.5972 25.8497C46.3643 26.5711 46.007 27.3672 45.6432 28.0201M25.2509 28.2549C25.195 28.1842 25.1402 28.1137 25.0867 28.0435M25.2509 28.2549C23.6101 29.145 21.6576 30.5563 25.0867 28.0435M30.379 9.72579C31.385 10.8114 32.0677 10.8528 33.0842 10.5855" stroke="#3B72E1" stroke-width="3"/>
</svg>
