<svg width="33" height="32" viewBox="0 0 33 32" fill="none" xmlns="http://www.w3.org/2000/svg">
<path fill-rule="evenodd" clip-rule="evenodd" d="M16.2869 4.10189C17.5259 4.10189 18.5303 5.10631 18.5303 6.34531V13.9343H26.3095C27.5485 13.9343 28.5529 14.9387 28.5529 16.1777C28.5529 17.4167 27.5485 18.4211 26.3095 18.4211H18.5303V25.6547C18.5303 26.8937 17.5259 27.8981 16.2869 27.8981C15.0479 27.8981 14.0435 26.8937 14.0435 25.6547V18.4211H6.17091C4.9319 18.4211 3.92749 17.4167 3.92749 16.1777C3.92749 14.9387 4.9319 13.9343 6.17091 13.9343H14.0435V6.34531C14.0435 5.10631 15.0479 4.10189 16.2869 4.10189Z" fill="#6868EE"/>
</svg>
