<svg width="33" height="35" viewBox="0 0 33 35" fill="none" xmlns="http://www.w3.org/2000/svg">
<path d="M30.2488 28.9042C30.2488 30.4451 29.8771 31.3848 29.3375 31.9966C28.7875 32.6201 27.9411 33.0425 26.7158 33.2985C25.4865 33.5552 23.9819 33.6231 22.2246 33.6198C21.4038 33.6183 20.5434 33.6015 19.6416 33.5839L19.4681 33.5805C18.5064 33.5618 17.5014 33.5434 16.4703 33.5434C15.4392 33.5434 14.4342 33.5618 13.4725 33.5805C13.4145 33.5817 13.3567 33.5828 13.299 33.5839C12.3972 33.6015 11.5368 33.6183 10.716 33.6198C8.95868 33.6231 7.45412 33.5552 6.22478 33.2985C4.9995 33.0425 4.15308 32.6201 3.60312 31.9966C3.06351 31.3848 2.69179 30.4451 2.69179 28.9042C2.69179 22.809 8.68336 17.5745 16.4703 17.5745C24.2573 17.5745 30.2488 22.809 30.2488 28.9042Z" fill="#3B72E1" stroke="#3B72E1" stroke-width="2"/>
<path d="M16.4703 16.6187C20.6123 16.6187 23.9703 13.2612 23.9703 9.11932C23.9703 4.97744 20.6123 1.61995 16.4703 1.61995C12.3283 1.61995 8.9703 4.97744 8.9703 9.11932C8.9703 13.2612 12.3283 16.6187 16.4703 16.6187Z" fill="#3B72E1" stroke="#3B72E1" stroke-width="2"/>
</svg>
