<svg width="33" height="36" viewBox="0 0 33 36" fill="none" xmlns="http://www.w3.org/2000/svg">
<path d="M29.7488 29.9042C29.7488 31.3644 29.398 32.1721 28.9625 32.6659C28.5115 33.1772 27.7829 33.5648 26.6136 33.809C25.4382 34.0545 23.9775 34.1231 22.2256 34.1198C21.4092 34.1183 20.5529 34.1016 19.6497 34.084C19.5926 34.0829 19.5353 34.0818 19.4778 34.0806C18.5163 34.0619 17.5068 34.0434 16.4703 34.0434C15.4338 34.0434 14.4244 34.0619 13.4628 34.0806C13.4053 34.0818 13.348 34.0829 13.2909 34.084C12.3877 34.1016 11.5314 34.1183 10.715 34.1198C8.96313 34.1231 7.50242 34.0545 6.32701 33.809C5.15769 33.5648 4.42911 33.1772 3.9781 32.6659C3.5426 32.1721 3.19179 31.3644 3.19179 29.9042C3.19179 24.1661 8.87086 19.0745 16.4703 19.0745C24.0698 19.0745 29.7488 24.1661 29.7488 29.9042Z" stroke="#3B72E1" stroke-width="3"/>
<path d="M16.4703 18.1187C20.8884 18.1187 24.4703 14.5374 24.4703 10.1193C24.4703 5.70125 20.8884 2.11995 16.4703 2.11995C12.0522 2.11995 8.4703 5.70125 8.4703 10.1193C8.4703 14.5374 12.0522 18.1187 16.4703 18.1187Z" stroke="#3B72E1" stroke-width="3"/>
</svg>
