<svg width="33" height="35" viewBox="0 0 33 35" fill="none" xmlns="http://www.w3.org/2000/svg">
<path d="M29.7322 29.2843C29.7322 30.7444 29.3813 31.5522 28.9458 32.0459C28.4948 32.5573 27.7663 32.9448 26.5969 33.1891C25.4215 33.4346 23.9608 33.5032 22.2089 33.4999C21.3927 33.4984 20.5365 33.4817 19.6334 33.464C19.5762 33.4629 19.5188 33.4618 19.4612 33.4607C18.4996 33.442 17.4902 33.4234 16.4537 33.4234C15.4171 33.4234 14.4077 33.442 13.4461 33.4607C13.3885 33.4618 13.3311 33.4629 13.2739 33.464C12.3708 33.4817 11.5146 33.4984 10.6984 33.4999C8.94648 33.5032 7.48576 33.4346 6.31036 33.1891C5.14104 32.9448 4.41246 32.5573 3.96145 32.0459C3.52595 31.5522 3.17514 30.7444 3.17514 29.2843C3.17514 23.5462 8.85421 18.4545 16.4537 18.4545C24.0531 18.4545 29.7322 23.5461 29.7322 29.2843Z" fill="#3B72E1" stroke="#3B72E1" stroke-width="3"/>
<path d="M16.4536 17.4987C20.8718 17.4987 24.4536 13.9174 24.4536 9.49937C24.4536 5.0813 20.8718 1.5 16.4536 1.5C12.0355 1.5 8.45364 5.0813 8.45364 9.49937C8.45364 13.9174 12.0355 17.4987 16.4536 17.4987Z" fill="#3B72E1" stroke="#3B72E1" stroke-width="3"/>
<path d="M20.8576 23.9714C27.0696 19.0076 31.1626 29.719 20.8576 33.8701C10.6687 29.7481 14.7326 19.0076 20.8576 23.9714Z" fill="#EEEEEE"/>
</svg>
