<?xml version="1.0" standalone="no"?>
<!DOCTYPE svg PUBLIC "-//W3C//DTD SVG 20010904//EN"
 "http://www.w3.org/TR/2001/REC-SVG-20010904/DTD/svg10.dtd">
<svg version="1.0" xmlns="http://www.w3.org/2000/svg"
 width="259.000000pt" height="259.000000pt" viewBox="0 0 259.000000 259.000000"
 preserveAspectRatio="xMidYMid meet">
<metadata>
Created by potrace 1.14, written by Peter Selinger 2001-2017
</metadata>
<g transform="translate(0.000000,259.000000) scale(0.100000,-0.100000)"
fill="#000000" stroke="none">
<path d="M258 2123 c-91 -26 -193 -157 -242 -310 -17 -51 -17 -53 3 -75 29
-30 38 -74 45 -204 5 -119 21 -200 41 -223 22 -23 65 -16 89 14 13 17 23 22
23 14 0 -8 9 -46 21 -85 26 -86 83 -175 150 -234 27 -25 73 -65 101 -90 29
-25 60 -63 70 -85 20 -46 79 -101 128 -122 19 -7 46 -27 61 -44 15 -16 41 -32
57 -35 17 -2 35 -6 41 -8 17 -6 86 28 109 53 11 13 34 29 51 36 51 21 113 83
126 126 6 21 15 39 20 39 5 0 29 21 53 46 l44 46 6 -29 c4 -15 10 -40 15 -55
8 -24 6 -27 -26 -33 -24 -4 -34 -11 -34 -25 0 -26 9 -30 50 -21 32 6 35 5 57
-37 13 -24 23 -45 23 -47 0 -2 -20 -13 -45 -24 -45 -20 -59 -46 -31 -57 7 -3
31 4 52 15 21 12 43 21 48 21 5 0 27 -19 50 -43 141 -146 327 -218 535 -204
171 11 324 84 440 209 36 40 59 42 108 10 13 -8 30 -12 38 -8 29 11 15 37 -30
56 -25 11 -45 22 -45 25 0 18 53 93 63 90 56 -17 67 -16 67 9 0 19 -7 25 -34
30 -34 7 -35 7 -23 39 20 54 15 262 -7 327 -17 49 -19 87 -20 336 -1 293 -4
314 -45 314 -14 0 -109 -72 -263 -200 l-57 -48 -68 19 c-115 33 -286 28 -385
-10 -21 -8 -31 -7 -43 5 -13 14 -13 19 0 51 8 20 22 41 31 47 14 11 13 18 -6
76 -47 141 -123 247 -208 290 -60 31 -129 29 -222 -6 -77 -28 -146 -35 -210
-20 -119 27 -256 28 -356 2 -84 -22 -110 -20 -190 10 -38 14 -80 28 -94 30
-14 2 -38 5 -55 7 -16 2 -51 -2 -77 -10z"/>
</g>
</svg>
