<svg width="68" height="70" viewBox="0 0 68 70" fill="none" xmlns="http://www.w3.org/2000/svg">
<path d="M67.0403 35.002C67.0403 53.9614 52.1181 69.3311 33.7106 69.3311C15.3031 69.3311 0.38092 53.9614 0.38092 35.002C0.38092 16.0426 15.3031 0.672943 33.7106 0.672943C52.1181 0.672943 67.0403 16.0426 67.0403 35.002Z" fill="white"/>
<path d="M18.2875 34.4731C18.4673 34.6648 18.6376 34.875 18.7699 35.0903C19.0595 35.5612 18.8569 36.1247 18.5284 36.5693C18.1225 37.1185 17.5181 37.527 16.8374 37.4721C16.2096 37.4215 15.5041 37.2203 14.9631 36.7071C14.3761 36.1503 13.8845 35.3552 13.8845 34.5462C13.8845 34.4386 14.1119 34.1293 15.0212 33.7522C15.1846 33.6642 15.6409 33.5512 16.395 33.5992C17.1119 33.6448 17.7962 33.9491 18.2875 34.4731Z" fill="#1F1E1E" stroke="#1F1E1E" stroke-width="1.35476"/>
<path d="M28.6214 34.6014C28.4416 34.7931 28.2713 35.0033 28.139 35.2185C27.8494 35.6894 28.052 36.2529 28.3805 36.6975C28.7864 37.2468 29.3907 37.6553 30.0715 37.6004C30.6993 37.5497 31.4048 37.3485 31.9458 36.8354C32.5328 36.2786 33.0244 35.4835 33.0244 34.6744C33.0244 34.5669 32.797 34.2576 31.8876 33.8804C31.7243 33.7924 31.268 33.6795 30.5139 33.7275C29.797 33.7731 29.1127 34.0774 28.6214 34.6014Z" fill="#1F1E1E" stroke="#1F1E1E" stroke-width="1.35476"/>
<path d="M16.2741 36.4865C16.6582 37.0505 18.3315 37.4186 19.1956 35.8879C19.4611 35.0739 19.1037 34.7955 18.5728 34.2064C17.9858 33.5551 16.1939 32.9879 16.1017 33.9708C15.9865 35.1994 15.8901 35.9226 16.2741 36.4865Z" fill="#343030" stroke="#343030" stroke-width="0.540661"/>
<path d="M30.8116 36.4865C30.4276 37.0505 28.7542 37.4186 27.8901 35.8879C27.6246 35.0739 27.982 34.7955 28.513 34.2064C29.1 33.5551 30.8919 32.9879 30.9841 33.9708C31.0993 35.1994 31.1957 35.9226 30.8116 36.4865Z" fill="#343030" stroke="#343030" stroke-width="0.540661"/>
<ellipse cx="17.8115" cy="34.9376" rx="1.00661" ry="0.926207" fill="white"/>
<ellipse cx="29.1379" cy="34.9376" rx="1.00661" ry="0.926207" fill="white"/>
<path d="M15.9938 48.6433C16.8561 50.5979 19.9506 52.8744 23.8637 52.8744C27.3332 52.8744 30.3962 50.3787 31.3085 48.6433C32.2209 46.908 31.113 42.9989 30.2007 41.5274C29.6266 39.9992 25.596 39.7003 23.8637 39.7003C21.9615 39.7003 17.9534 40.0657 17.1382 41.5274C16.4249 43.0019 15.1315 46.6888 15.9938 48.6433Z" fill="#EDB27D"/>
<path d="M20.3129 47.7998C20.6795 48.8044 22.256 50.3946 23.7383 50.3946C25.1676 50.3946 26.5578 49.1168 27.0437 47.7998C27.2313 47.2914 25.6579 45.4108 23.7383 45.48C21.5852 45.3811 20.1345 47.311 20.3129 47.7998Z" fill="#343030" stroke="#343030" stroke-width="0.558077"/>
<path d="M24.0624 45.2114C25.9482 45.1939 27.5119 47.4176 27.272 47.8041C27.272 48.2853 25.8655 50.0772 25.2446 50.1192C24.4686 50.1717 21.8213 47.8709 22.1115 46.8386C22.1816 46.2991 22.5539 45.2254 24.0624 45.2114Z" fill="#4E4747" stroke="#4E4747" stroke-width="0.119089"/>
<path d="M19.1307 20.9992C15.7878 17.9287 9.16922 12.4975 9.43845 15.3364V30.2795L19.1307 20.9992Z" fill="#EDB27D" stroke="#E1B796" stroke-width="2.97723"/>
<path d="M27.4305 20.9992C30.7734 17.9287 37.392 12.4975 37.1228 15.3364V30.2795L27.4305 20.9992Z" fill="#EDB27D" stroke="#E1B796" stroke-width="2.97723"/>
<path d="M37.4398 25.7827V36.0809C37.952 35.1761 38.5893 34.2876 39.2663 33.4588C40.621 31.8002 42.1664 30.3428 43.2735 29.4278C42.0993 28.41 40.5766 27.2021 39.2931 26.4183C38.5296 25.9521 37.936 25.6904 37.5764 25.6457C37.5164 25.6382 37.4768 25.6386 37.4524 25.6407C37.4462 25.6673 37.4398 25.7121 37.4398 25.7827ZM37.4197 25.6465C37.4197 25.6465 37.4201 25.6463 37.421 25.646L37.4197 25.6465ZM37.4615 25.6116C37.4632 25.6091 37.4639 25.6076 37.4638 25.6075C37.4637 25.6074 37.4628 25.6086 37.4615 25.6116Z" fill="white" stroke="#372F39" stroke-width="1.18864"/>
<path d="M62.3055 25.7827V36.0809C61.7933 35.1761 61.156 34.2876 60.479 33.4588C59.1243 31.8002 57.5789 30.3428 56.4718 29.4278C57.646 28.41 59.1687 27.2021 60.4522 26.4183C61.2157 25.9521 61.8093 25.6904 62.1689 25.6457C62.2289 25.6382 62.2685 25.6386 62.2929 25.6407C62.2991 25.6673 62.3055 25.7121 62.3055 25.7827ZM62.3256 25.6465C62.3256 25.6465 62.3252 25.6463 62.3243 25.646L62.3256 25.6465ZM62.2838 25.6116C62.2821 25.6091 62.2814 25.6076 62.2815 25.6075C62.2816 25.6074 62.2825 25.6086 62.2838 25.6116Z" stroke="#372F39" stroke-width="1.18864"/>
<path d="M52.2972 49.1171C54.6279 49.0805 59.4313 49.4676 61.5416 49.6657" stroke="black" stroke-width="0.261382"/>
<path d="M47.1018 49.1171C44.771 49.0805 39.9677 49.4676 37.8573 49.6657" stroke="black" stroke-width="0.261382"/>
<path d="M52.2974 48.3836C54.8625 48.059 60.2003 47.8498 62.5486 47.7857" stroke="black" stroke-width="0.261382"/>
<path d="M47.1458 48.3836C44.5808 48.059 39.2429 47.8498 36.8946 47.7857" stroke="black" stroke-width="0.261382"/>
<path d="M50.2257 51.2209C50.53 50.979 52.3584 48.8033 52.0004 48.5129C51.6424 48.2226 47.681 48.2383 47.3587 48.5129C47.0799 48.7505 48.6613 50.9522 48.9797 51.2209C49.2415 51.4419 49.9215 51.4628 50.2257 51.2209Z" fill="#372F39"/>
<path d="M46.1605 44.1486C47.1326 39.9507 41.4599 38.6777 40.9285 41.3829C40.3754 44.1985 42.8405 46.0161 45.273 45.1546C45.6015 45.0382 45.8341 44.7691 45.901 44.6958C45.9679 44.6225 46.1234 44.3091 46.1605 44.1486Z" fill="#372F39"/>
<path d="M52.9476 44.1486C51.9755 39.9507 57.6482 38.6777 58.1796 41.3829C58.7327 44.1985 56.2676 46.0161 53.8352 45.1546C53.5066 45.0382 53.274 44.7691 53.2071 44.6958C53.1403 44.6225 52.9848 44.3091 52.9476 44.1486Z" fill="#372F39"/>
<path d="M43.5004 40.0703C43.267 40.327 43.1488 43.4531 43.4572 43.8913C43.8431 44.4396 44.5407 44.4159 45.1617 44.2145C45.5829 44.0779 45.9965 43.8886 46.1153 43.6241C46.198 43.4399 46.2168 43.1428 46.2168 42.8269C46.0912 40.7323 43.7091 39.8407 43.5004 40.0703Z" fill="#483F4A"/>
<path d="M55.6077 40.0703C55.8411 40.327 55.9592 43.4531 55.6508 43.8913C55.265 44.4396 54.5674 44.4159 53.9463 44.2145C53.5251 44.0779 53.1115 43.8886 52.9928 43.6241C52.91 43.4399 52.8912 43.1428 52.8912 42.8269C53.0169 40.7323 55.3989 39.8407 55.6077 40.0703Z" fill="#504653"/>
<ellipse cx="44.9533" cy="42.2565" rx="0.589558" ry="0.623034" fill="white"/>
<ellipse rx="0.589558" ry="0.623034" transform="matrix(-1 0 0 1 54.1548 42.2565)" fill="white"/>
<path d="M48.9069 48.3176C48.9604 48.2795 51.3083 48.2421 52.0407 48.4862C52.2447 48.9761 50.6546 50.9542 50.294 51.0883C50.0785 51.1685 48.7886 48.4022 48.9069 48.3176Z" fill="#483F4A"/>
</svg>
