<svg width="50" height="36" viewBox="0 0 50 36" fill="none" xmlns="http://www.w3.org/2000/svg">
<path fill-rule="evenodd" clip-rule="evenodd" d="M5.20884 6.60671C5.2248 6.60671 5.24082 6.60671 5.25688 6.60671H21.1463C21.5412 6.60671 21.8614 6.93818 21.8614 7.34707C21.8614 7.75596 21.5412 8.08744 21.1463 8.08744H5.25688C4.48763 8.08744 3.98262 8.08901 3.60865 8.14107C3.25525 8.19027 3.12768 8.27201 3.04999 8.35246M3.04999 8.35246C2.97228 8.43292 2.89333 8.56502 2.84581 8.93094C2.79553 9.31817 2.79402 9.84107 2.79401 10.6376V30.7095C2.79401 31.506 2.79553 32.0289 2.84581 32.4161C2.89333 32.782 2.97228 32.9141 3.04999 32.9946C3.12768 33.0751 3.25525 33.1568 3.60865 33.206C3.98262 33.2581 4.48763 33.2596 5.25688 33.2596H36.718C37.1129 33.2596 37.433 33.5911 37.433 34C37.433 34.4089 37.1129 34.7404 36.718 34.7404H5.20883C4.50084 34.7404 3.89867 34.7404 3.4181 34.6735C2.90612 34.6023 2.42646 34.4431 2.03877 34.0416C1.65109 33.6402 1.49735 33.1435 1.42851 32.6134C1.3639 32.1158 1.36393 31.4923 1.36396 30.7592L1.36396 10.6376C1.36396 10.6209 1.36396 10.6044 1.36396 10.5878C1.36393 9.85475 1.3639 9.23124 1.42851 8.73364C1.49735 8.20351 1.65109 7.70687 2.03878 7.30544C2.42647 6.90401 2.90612 6.74482 3.4181 6.67354C3.89868 6.60664 4.50085 6.60667 5.20884 6.60671" fill="#3B72E1"/>
<path d="M5.20884 6.60671C5.2248 6.60671 5.24082 6.60671 5.25688 6.60671H21.1463C21.5412 6.60671 21.8614 6.93818 21.8614 7.34707C21.8614 7.75596 21.5412 8.08744 21.1463 8.08744H5.25688C4.48763 8.08744 3.98262 8.08901 3.60865 8.14107C3.25525 8.19027 3.12768 8.27201 3.04999 8.35246M5.20884 6.60671L3.04999 8.35246M5.20884 6.60671C4.50085 6.60667 3.89868 6.60664 3.4181 6.67354C2.90612 6.74482 2.42647 6.90401 2.03878 7.30544C1.65109 7.70687 1.49735 8.20351 1.42851 8.73364C1.3639 9.23124 1.36393 9.85475 1.36396 10.5878C1.36396 10.6044 1.36396 10.6209 1.36396 10.6376L1.36396 30.7592C1.36393 31.4923 1.3639 32.1158 1.42851 32.6134C1.49735 33.1435 1.65109 33.6402 2.03877 34.0416C2.42646 34.4431 2.90612 34.6023 3.4181 34.6735C3.89867 34.7404 4.50084 34.7404 5.20883 34.7404H36.718C37.1129 34.7404 37.433 34.4089 37.433 34C37.433 33.5911 37.1129 33.2596 36.718 33.2596H5.25688C4.48763 33.2596 3.98262 33.2581 3.60865 33.206C3.25525 33.1568 3.12768 33.0751 3.04999 32.9946C2.97228 32.9141 2.89333 32.782 2.84581 32.4161C2.79553 32.0289 2.79401 31.506 2.79401 30.7095V10.6376C2.79402 9.84107 2.79553 9.31817 2.84581 8.93094C2.89333 8.56502 2.97228 8.43292 3.04999 8.35246" stroke="#3B72E1" stroke-linecap="round"/>
<path fill-rule="evenodd" clip-rule="evenodd" d="M12.1688 14.7105C8.9442 14.7105 6.45229 17.273 6.45229 20.2814C6.45229 23.29 8.9442 25.8523 12.1688 25.8523C15.3934 25.8523 17.8853 23.29 17.8853 20.2814C17.8853 17.273 15.3934 14.7105 12.1688 14.7105ZM4.9391 20.2814C4.9391 16.3406 8.1747 13.1437 12.1688 13.1437C16.1629 13.1437 19.3985 16.3406 19.3985 20.2814C19.3985 24.2223 16.1629 27.4192 12.1688 27.4192C8.1747 27.4192 4.9391 24.2223 4.9391 20.2814Z" fill="#3B72E1" stroke="#3B72E1"/>
<path fill-rule="evenodd" clip-rule="evenodd" d="M4.9391 4.96146C4.9391 4.55256 5.25923 4.22109 5.65412 4.22109H12.0099C12.4048 4.22109 12.7249 4.55256 12.7249 4.96146C12.7249 5.37035 12.4048 5.70182 12.0099 5.70182H5.65412C5.25923 5.70182 4.9391 5.37035 4.9391 4.96146Z" fill="#3B72E1"/>
<path fill-rule="evenodd" clip-rule="evenodd" d="M35.6057 2.74037C29.0874 2.74037 23.8476 8.10588 23.8476 14.6685C23.8476 21.231 29.0874 26.5965 35.6057 26.5965C42.1241 26.5965 47.3639 21.231 47.3639 14.6685C47.3639 8.10588 42.1241 2.74037 35.6057 2.74037ZM22.4175 14.6685C22.4175 7.26319 28.3219 1.25964 35.6057 1.25964C42.8896 1.25964 48.794 7.26319 48.794 14.6685C48.794 22.0737 42.8896 28.0773 35.6057 28.0773C28.3219 28.0773 22.4175 22.0737 22.4175 14.6685Z" fill="#3B72E1" stroke="#3B72E1"/>
<path fill-rule="evenodd" clip-rule="evenodd" d="M35.8441 6.68897C36.5023 6.68897 37.0358 7.24143 37.0358 7.92291V22.2439C37.0358 22.9253 36.5023 23.4778 35.8441 23.4778C35.1859 23.4778 34.6524 22.9253 34.6524 22.2439V7.92291C34.6524 7.24143 35.1859 6.68897 35.8441 6.68897Z" fill="#3B72E1"/>
<path fill-rule="evenodd" clip-rule="evenodd" d="M27.3432 15.162C27.3432 14.4805 27.8768 13.9281 28.5349 13.9281H43.154C43.8122 13.9281 44.3458 14.4805 44.3458 15.162C44.3458 15.8435 43.8122 16.396 43.154 16.396H28.5349C27.8768 16.396 27.3432 15.8435 27.3432 15.162Z" fill="#3B72E1"/>
</svg>
