<svg width="21" height="19" viewBox="0 0 21 19" fill="none" xmlns="http://www.w3.org/2000/svg">
<circle cx="10.3823" cy="10.0009" r="8.52359" fill="#FFCE3E"/>
<path d="M18.9058 10.2154C18.9058 14.9298 15.3833 16.5575 10.669 16.5575C6.96846 16.5575 3.39349 13.0754 3.39349 10.2154C3.39349 5.50109 5.55659 1.38983 10.2709 1.38983C14.9853 1.38983 18.9058 5.50109 18.9058 10.2154Z" fill="#F7D160"/>
<path d="M2.24751 0.489777V7.22781C2.58265 6.63583 2.9996 6.05446 3.44255 5.51217C4.32896 4.42698 5.34006 3.4734 6.06444 2.87471C5.29618 2.20878 4.29989 1.41847 3.4601 0.905657C2.96055 0.600605 2.57217 0.429387 2.33687 0.400129C2.29762 0.395249 2.27169 0.395453 2.25573 0.396838C2.25169 0.414245 2.24751 0.443555 2.24751 0.489777ZM2.2632 0.375114C2.26314 0.375042 2.26257 0.375871 2.26169 0.377818C2.26282 0.37616 2.26326 0.375186 2.2632 0.375114Z" fill="#FF9B42" stroke="#FFCE3E" stroke-width="0.77772"/>
<path d="M18.517 0.489777V7.22781C18.1819 6.63583 17.7649 6.05446 17.322 5.51217C16.4356 4.42698 15.4245 3.4734 14.7001 2.87471C15.4683 2.20878 16.4646 1.41847 17.3044 0.905657C17.804 0.600605 18.1924 0.429387 18.4277 0.400129C18.4669 0.395249 18.4928 0.395453 18.5088 0.396838C18.5128 0.414245 18.517 0.443555 18.517 0.489777ZM18.5013 0.375114C18.5014 0.375042 18.502 0.375871 18.5028 0.377818C18.5017 0.37616 18.5013 0.375186 18.5013 0.375114Z" fill="#FF9B42" stroke="#F7D160" stroke-width="0.77772"/>
<path d="M12.0731 15.8843C13.5695 16.1786 16.5906 17.0813 17.9141 17.4958" stroke="black" stroke-width="0.17102"/>
<path d="M8.46314 15.8843C6.96665 16.1786 3.9456 17.0813 2.62213 17.4958" stroke="black" stroke-width="0.17102"/>
<path d="M12.0992 15.495C14.1119 15.513 18.2538 15.8527 20.0731 16.0203" stroke="black" stroke-width="0.17102"/>
<path d="M8.43564 15.495C6.49223 15.5116 2.49338 15.8483 0.736882 16.0145" stroke="black" stroke-width="0.17102"/>
<path d="M12.092 15.0825C13.7455 14.725 17.2128 14.2848 18.7399 14.1095" stroke="black" stroke-width="0.17102"/>
<path d="M8.51402 15.0825C6.86056 14.725 3.39318 14.2848 1.86617 14.1095" stroke="black" stroke-width="0.17102"/>
<path d="M10.6133 17.1338C10.8123 16.9755 12.0087 15.552 11.7744 15.362C11.5402 15.172 8.94826 15.1823 8.7374 15.362C8.55498 15.5174 9.58963 16.958 9.79797 17.1338C9.96932 17.2784 10.4142 17.2921 10.6133 17.1338Z" fill="#372F39"/>
<path d="M7.95342 12.5064C8.58946 9.75975 4.87785 8.92687 4.53015 10.6969C4.16826 12.5391 5.78117 13.7283 7.3727 13.1646C7.58766 13.0885 7.73987 12.9124 7.78362 12.8645C7.82737 12.8165 7.9291 12.6114 7.95342 12.5064Z" fill="#372F39"/>
<path d="M12.3941 12.5064C11.7581 9.75975 15.4697 8.92687 15.8174 10.6969C16.1793 12.5391 14.5664 13.7283 12.9748 13.1646C12.7599 13.0885 12.6077 12.9124 12.5639 12.8645C12.5202 12.8165 12.4184 12.6114 12.3941 12.5064Z" fill="#372F39"/>
<path d="M6.2129 9.83802C6.06019 10.006 5.9829 12.0514 6.18466 12.3381C6.43713 12.6968 6.89357 12.6813 7.2999 12.5496C7.57552 12.4602 7.84611 12.3363 7.92381 12.1633C7.97794 12.0427 7.99024 11.8483 7.99024 11.6417C7.90805 10.2712 6.34948 9.68779 6.2129 9.83802Z" fill="#483F4A"/>
<path d="M14.1346 9.83802C14.2873 10.006 14.3646 12.0514 14.1629 12.3381C13.9104 12.6968 13.454 12.6813 13.0476 12.5496C12.772 12.4602 12.5014 12.3363 12.4237 12.1633C12.3696 12.0427 12.3573 11.8483 12.3573 11.6417C12.4395 10.2712 13.9981 9.68779 14.1346 9.83802Z" fill="#504653"/>
<ellipse cx="7.16351" cy="11.2684" rx="0.385744" ry="0.407647" fill="white"/>
<ellipse rx="0.385744" ry="0.407647" transform="matrix(-1 0 0 1 13.184 11.2684)" fill="white"/>
<path d="M9.75043 15.2342C9.78538 15.2092 11.3216 15.1847 11.8008 15.3445C11.9343 15.665 10.8939 16.9593 10.658 17.047C10.517 17.0995 9.673 15.2895 9.75043 15.2342Z" fill="#483F4A"/>
</svg>
