<svg width="32" height="33" viewBox="0 0 32 33" fill="none" xmlns="http://www.w3.org/2000/svg">
<path d="M30 5.5C30 5.87525 29.8032 6.34902 29.1929 6.89637C28.583 7.44328 27.6441 7.9816 26.3984 8.45409C23.9141 9.39639 20.4148 10 16.5 10C12.5852 10 9.08586 9.39639 6.60161 8.45409C5.35595 7.9816 4.41698 7.44328 3.80713 6.89637C3.19679 6.34902 3 5.87525 3 5.5C3 5.12475 3.19679 4.65098 3.80713 4.10363C4.41698 3.55672 5.35595 3.0184 6.60161 2.54591C9.08586 1.60361 12.5852 1 16.5 1C20.4148 1 23.9141 1.60361 26.3984 2.54591C27.6441 3.0184 28.583 3.55672 29.1929 4.10363C29.8032 4.65098 30 5.12475 30 5.5Z" stroke="#3B72E1" stroke-width="2"/>
<path d="M30 15C30 18.3137 23.9558 21 16.5 21C9.04416 21 3 18.3137 3 15" stroke="#3B72E1" stroke-width="2"/>
<path d="M30 26C30 29.3137 23.9558 32 16.5 32C9.04416 32 3 29.3137 3 26" stroke="#3B72E1" stroke-width="2"/>
<path d="M3.02226 26.4474L3 5" stroke="#3B72E1" stroke-width="2"/>
<path d="M30 26V11.3333V6" stroke="#3B72E1" stroke-width="2"/>
<ellipse cx="25.9131" cy="13.8475" rx="1.91308" ry="1.8475" fill="#3B72E1"/>
<ellipse cx="25.9131" cy="24.8475" rx="1.91308" ry="1.8475" fill="#3B72E1"/>
</svg>
