<svg width="36" height="45" viewBox="0 0 36 45" fill="none" xmlns="http://www.w3.org/2000/svg">
<circle cx="17.4192" cy="24.9925" r="16.4192" fill="#CE9C71"/>
<path d="M12.7235 9.05146C9.07397 5.69933 1.84831 -0.230077 2.14225 2.86925L2.82044 19.0337L12.7235 9.05146Z" fill="#F5BC89" stroke="#CE9C71" stroke-width="3.25032"/>
<path d="M33.5192 24.628C33.5192 33.5823 25.1239 38.8533 17.3061 38.8533C10.6442 38.8533 3.27582 33.4829 3.27582 24.1017C3.27582 15.8598 11.7053 8.41486 17.3061 8.41486C26.2603 8.41486 33.5192 15.6737 33.5192 24.628Z" fill="#DAA87C"/>
<path d="M13.174 22.9292C11.9502 23.0482 9.29027 22.4752 7.25536 22.8065C6.18068 22.9816 5.41845 21.2544 7.17045 20.7039C8.53293 20.4336 11.7252 19.9576 13.5945 20.2157C15.9312 20.5384 14.3978 22.8102 13.174 22.9292Z" fill="#EDB27D"/>
<path d="M22.8253 22.9292C24.0491 23.0482 26.7091 22.4752 28.744 22.8065C29.8187 22.9816 30.5809 21.2544 28.8289 20.7039C27.4664 20.4336 24.2741 19.9576 22.4048 20.2157C20.0682 20.5384 21.6015 22.8102 22.8253 22.9292Z" fill="white" stroke="white"/>
<path d="M12.4647 22.5946C12.6718 22.7992 12.8768 23.0297 13.0452 23.27C13.4562 23.8564 13.1312 24.5704 12.588 25.0371C12.2472 25.33 11.8363 25.5373 11.3913 25.5988C10.6534 25.7007 9.72722 25.7203 9.02995 25.1723C8.33548 24.6265 7.82043 23.7244 7.82043 22.8411C7.82043 22.7237 8.06863 22.386 9.06143 21.9743C9.25594 21.8695 9.83103 21.7323 10.7934 21.826C11.421 21.8872 12.0162 22.1514 12.4647 22.5946Z" fill="#1F1E1E" stroke="#1F1E1E" stroke-width="1.47903"/>
<path d="M23.9896 22.5946C23.7826 22.7992 23.5775 23.0297 23.4091 23.27C22.9981 23.8564 23.3232 24.5704 23.8663 25.0371C24.2071 25.33 24.618 25.5373 25.0631 25.5988C25.8009 25.7007 26.7271 25.7203 27.4244 25.1723C28.1189 24.6265 28.6339 23.7244 28.6339 22.8411C28.6339 22.7237 28.3857 22.386 27.3929 21.9743C27.1984 21.8695 26.6233 21.7323 25.6609 21.826C25.0333 21.8872 24.4381 22.1514 23.9896 22.5946Z" fill="#1F1E1E" stroke="#1F1E1E" stroke-width="1.47903"/>
<path d="M10.4292 24.9594C10.8485 25.5751 12.6753 25.9771 13.6187 24.3059C13.9085 23.4173 13.5183 23.1134 12.9387 22.4702C12.2979 21.7592 10.3416 21.1399 10.2409 22.2129C10.1152 23.5542 10.0099 24.3437 10.4292 24.9594Z" fill="#343030" stroke="#343030" stroke-width="0.590253"/>
<path d="M26.0601 24.9594C25.6408 25.5751 23.814 25.9771 22.8706 24.3059C22.5807 23.4173 22.9709 23.1134 23.5506 22.4702C24.1914 21.7592 26.1477 21.1399 26.2483 22.2129C26.3741 23.5542 26.4793 24.3437 26.0601 24.9594Z" fill="#343030" stroke="#343030" stroke-width="0.590253"/>
<path d="M13.9761 38.1879H21.9364C22.0286 42.5496 21.1013 44.7462 17.9342 44.6312C14.767 44.5162 14.0057 42.4191 13.9761 38.1879Z" fill="#FC5555"/>
<ellipse cx="12.1076" cy="23.2684" rx="1.09894" ry="1.01116" fill="white"/>
<ellipse cx="24.4008" cy="23.2684" rx="1.09894" ry="1.01116" fill="white"/>
<path d="M9.94116 36.5074C10.8826 38.6901 14.9505 41.7347 18.5329 39.8675C22.237 41.628 25.6646 38.4453 26.6606 36.5074C27.6567 34.5696 26.4472 30.2042 25.4511 28.561C24.8245 26.8544 20.4241 26.5207 18.5329 26.5207C16.4562 26.5207 12.0805 26.9288 11.1905 28.561C10.4117 30.2075 8.99973 34.3247 9.94116 36.5074Z" fill="#FBC391"/>
<path d="M14.8384 36.1959C15.2387 37.2925 16.9597 39.0287 18.578 39.0287C20.1385 39.0287 21.6562 37.6336 22.1866 36.1959C22.3914 35.6408 20.6737 33.5877 18.578 33.6632C16.2275 33.5553 14.6436 35.6621 14.8384 36.1959Z" fill="#343030" stroke="#343030" stroke-width="0.609267"/>
<path d="M18.9319 33.4846C20.9906 33.4655 22.6977 35.8932 22.4358 36.3151C22.4358 36.8404 20.9003 38.7967 20.2225 38.8426C19.3753 38.8999 16.4852 36.388 16.802 35.261C16.8785 34.6721 17.285 33.4999 18.9319 33.4846Z" fill="#4E4747" stroke="#4E4747" stroke-width="0.130013"/>
<path d="M23.3019 9.05146C26.9514 5.69933 34.1771 -0.230077 33.8831 2.86925L32.0649 19.0888L23.3019 9.05146Z" fill="#FBC391" stroke="#DAA87C" stroke-width="3.25032"/>
</svg>
