<svg width="23" height="43" viewBox="0 0 23 43" fill="none" xmlns="http://www.w3.org/2000/svg">
<path d="M7.31142 19.1236C7.31142 18.5713 7.71026 18.1236 8.20224 18.1236H15.4156C15.9076 18.1236 16.3065 18.5713 16.3065 19.1236L16.6875 25.1452C16.6875 25.6975 15.9076 26.2218 15.4156 26.2218H8.20224C7.71026 26.2218 6.92278 25.6975 6.92278 25.1452L7.31142 19.1236Z" fill="#CE9C71"/>
<circle cx="12.3303" cy="32.1549" r="10.3451" fill="white" stroke="#FF0000" stroke-width="0.551148"/>
<path fill-rule="evenodd" clip-rule="evenodd" d="M16.8588 28.1879C17.2665 28.5091 17.3075 29.0668 16.9505 29.4336L9.73976 36.8412C9.38275 37.208 8.76285 37.2449 8.35518 36.9237C7.94752 36.6025 7.90646 36.0448 8.26348 35.678L15.4742 28.2704C15.8313 27.9036 16.4511 27.8667 16.8588 28.1879Z" fill="#C40000"/>
<path fill-rule="evenodd" clip-rule="evenodd" d="M8.35501 28.2222C8.76256 27.9006 9.38251 27.9374 9.73969 28.3043L16.9503 35.7108C17.3075 36.0776 17.2667 36.6357 16.8591 36.9573C16.4516 37.2788 15.8316 37.242 15.4745 36.8752L8.2638 29.4687C7.90662 29.1018 7.94745 28.5437 8.35501 28.2222Z" fill="#C40000"/>
<circle cx="12.0603" cy="12.7276" r="8.20959" fill="#CE9C71"/>
<path d="M9.71245 4.75713C7.88766 3.08107 4.27483 0.116361 4.4218 1.66603L4.7609 9.74826L9.71245 4.75713Z" fill="#F5BC89" stroke="#CE9C71" stroke-width="1.62516"/>
<path d="M20.1103 12.5454C20.1103 17.0225 15.9126 19.6581 12.0037 19.6581C8.67277 19.6581 4.98859 16.9729 4.98859 12.2823C4.98859 8.1613 9.20334 4.43883 12.0037 4.43883C16.4808 4.43883 20.1103 8.06826 20.1103 12.5454Z" fill="#DAA87C"/>
<path d="M9.93769 11.696C9.32579 11.7555 7.99581 11.469 6.97836 11.6347C6.44102 11.7222 6.0599 10.8586 6.9359 10.5833C7.61714 10.4482 9.21329 10.2102 10.1479 10.3393C11.3163 10.5006 10.5496 11.6365 9.93769 11.696Z" fill="#EDB27D"/>
<path d="M14.7633 11.696C15.3752 11.7555 16.7052 11.469 17.7227 11.6347C18.26 11.7222 18.6411 10.8586 17.7651 10.5833C17.0839 10.4482 15.4877 10.2102 14.5531 10.3393C13.3848 10.5006 14.1514 11.6365 14.7633 11.696Z" fill="white" stroke="white" stroke-width="0.5"/>
<path d="M9.58306 11.5287C9.68658 11.631 9.78911 11.7462 9.8733 11.8664C10.0788 12.1596 9.91628 12.5166 9.64469 12.75C9.4743 12.8964 9.26886 13 9.04632 13.0308C8.6774 13.0817 8.2143 13.0916 7.86567 12.8175C7.51843 12.5446 7.26091 12.0936 7.26091 11.6519C7.26091 11.5932 7.38501 11.4244 7.88141 11.2185C7.97866 11.1661 8.26621 11.0975 8.74741 11.1444C9.06121 11.175 9.35881 11.3071 9.58306 11.5287Z" fill="#1F1E1E" stroke="#1F1E1E" stroke-width="0.739514"/>
<path d="M15.3455 11.5287C15.2419 11.631 15.1394 11.7462 15.0552 11.8664C14.8497 12.1596 15.0122 12.5166 15.2838 12.75C15.4542 12.8964 15.6597 13 15.8822 13.0308C16.2511 13.0817 16.7142 13.0916 17.0629 12.8175C17.4101 12.5446 17.6676 12.0936 17.6676 11.6519C17.6676 11.5932 17.5435 11.4244 17.0471 11.2185C16.9499 11.1661 16.6623 11.0975 16.1811 11.1444C15.8673 11.175 15.5697 11.3071 15.3455 11.5287Z" fill="#1F1E1E" stroke="#1F1E1E" stroke-width="0.739514"/>
<path d="M8.56528 12.7111C8.77492 13.0189 9.68834 13.2199 10.16 12.3843C10.305 11.94 10.1099 11.7881 9.82003 11.4665C9.49962 11.111 8.52147 10.8013 8.47116 11.3378C8.40828 12.0085 8.35565 12.4033 8.56528 12.7111Z" fill="#343030" stroke="#343030" stroke-width="0.295127"/>
<path d="M16.3807 12.7111C16.1711 13.0189 15.2577 13.2199 14.786 12.3843C14.641 11.94 14.8361 11.7881 15.126 11.4665C15.4464 11.111 16.4245 10.8013 16.4748 11.3378C16.5377 12.0085 16.5904 12.4033 16.3807 12.7111Z" fill="#343030" stroke="#343030" stroke-width="0.295127"/>
<path d="M10.3387 19.3253H14.3189C14.365 21.5062 13.9013 22.6045 12.3178 22.547C10.7342 22.4895 10.3535 21.4409 10.3387 19.3253Z" fill="#FC5555"/>
<ellipse cx="9.40447" cy="11.8656" rx="0.549472" ry="0.505582" fill="white"/>
<ellipse cx="15.5511" cy="11.8656" rx="0.549472" ry="0.505582" fill="white"/>
<path d="M8.32124 18.4851C8.79196 19.5765 10.8259 21.0988 12.6171 20.1652C14.4692 21.0454 16.183 19.454 16.681 18.4851C17.179 17.5162 16.5743 15.3335 16.0762 14.5119C15.7629 13.6586 13.5627 13.4918 12.6171 13.4918C11.5788 13.4918 9.3909 13.6958 8.9459 14.5119C8.55654 15.3352 7.85053 17.3938 8.32124 18.4851Z" fill="#FBC391"/>
<path d="M10.7699 18.3293C10.97 18.8777 11.8305 19.7457 12.6397 19.7457C13.4199 19.7457 14.1788 19.0482 14.444 18.3293C14.5464 18.0518 13.6875 17.0252 12.6397 17.063C11.4644 17.009 10.6725 18.0625 10.7699 18.3293Z" fill="#343030" stroke="#343030" stroke-width="0.304633"/>
<path d="M12.8166 16.9737C13.846 16.9641 14.6995 18.178 14.5686 18.389C14.5686 18.6516 13.8008 19.6298 13.4619 19.6527C13.0383 19.6813 11.5933 18.4254 11.7517 17.8619C11.7899 17.5674 11.9932 16.9813 12.8166 16.9737Z" fill="#4E4747" stroke="#4E4747" stroke-width="0.0650064"/>
<path d="M15.0016 4.75713C16.8264 3.08107 20.4392 0.116361 20.2922 1.66603L19.3831 9.77579L15.0016 4.75713Z" fill="#FBC391" stroke="#DAA87C" stroke-width="1.62516"/>
<path d="M7.45806 20.6306C4.33617 20.2461 4.07925 21.9268 3.64191 27.1469C3.49925 28.8498 9.36325 29.6323 9.62081 27.5407C10.1848 22.4047 10.7641 21.0377 7.45806 20.6306Z" fill="#CE9C71"/>
<path d="M16.5975 20.6084C13.4642 20.8845 13.564 22.5818 14.2267 27.7781C14.4428 29.4732 20.3409 29.0136 20.1559 26.9144C19.6347 21.7738 19.9157 20.316 16.5975 20.6084Z" fill="#CE9C71"/>
<line x1="5.42687" y1="26.973" x2="5.42883" y2="27.2101" stroke="black" stroke-linecap="round"/>
<line x1="15.4269" y1="26.973" x2="15.4288" y2="27.2101" stroke="black" stroke-linecap="round"/>
<line x1="8.42687" y1="26.973" x2="8.42883" y2="27.2101" stroke="black" stroke-linecap="round"/>
<line x1="18.4269" y1="26.973" x2="18.4288" y2="27.2101" stroke="black" stroke-linecap="round"/>
<line x1="6.92687" y1="26.973" x2="6.92883" y2="27.2101" stroke="black" stroke-linecap="round"/>
<line x1="16.9269" y1="26.973" x2="16.9288" y2="27.2101" stroke="black" stroke-linecap="round"/>
</svg>
