<svg width="33" height="36" viewBox="0 0 33 36" fill="none" xmlns="http://www.w3.org/2000/svg">
<path fill-rule="evenodd" clip-rule="evenodd" d="M9.08703 5.9325C7.16306 7.56771 5.76211 10.0895 5.6235 13.662L2.06687 13.5315C2.23989 9.07212 4.03327 5.63081 6.74497 3.32611C9.42933 1.04464 12.9062 -0.0334811 16.3292 0.000791627C23.1901 0.069487 30.2002 4.66672 30.5548 13.5295L26.9983 13.6641C26.7297 6.94974 21.5856 3.51502 16.2925 3.46202C13.6385 3.43545 11.0383 4.27405 9.08703 5.9325Z" fill="#3B72E1"/>
<path d="M1.81084 16.1928H30.8108V33.5317H1.81084V16.1928Z" stroke="#3B72E1" stroke-width="3"/>
<path d="M15.1942 25.1551L13.3573 24.6227L13.6371 23.7295L15.474 24.392L15.4192 22.357H16.3498L16.289 24.4216L18.0956 23.7709L18.3754 24.67L16.508 25.2083L17.7123 26.8114L16.9581 27.3675L15.8268 25.6638L14.7319 27.3261L13.9716 26.7877L15.1942 25.1551Z" fill="#3B72E1"/>
</svg>
