<svg width="57" height="41" viewBox="0 0 57 41" fill="none" xmlns="http://www.w3.org/2000/svg">
<path d="M29.9491 32.1613C33.4658 37.1482 36.9852 37.6151 39.7505 37.6151C47.4353 37.6151 52.0325 32.0487 51.0839 23.2013C50.5601 19.9103 51.8676 12.336 50.196 12.4929C48.1799 12.6822 46.4362 16.1877 45.3377 16.6055C44.496 16.7595 43.7249 15.8527 43.3729 15.7236C41.249 14.479 38.3613 14.363 35.6264 15.905C34.7244 16.1669 33.7594 16.8774 33.7594 15.905C33.7594 14.9326 33.7594 12.9176 33.7594 12.0316C33.8621 7.75673 33.7553 3.70197 32.9999 2.99944C29.2992 -0.44197 22.764 8.45425 22.0392 8.72725C21.7092 8.72725 21.2826 8.24594 17.8346 8.24594C14.962 8.24594 14.6849 8.77438 14.3314 8.77438C13.7185 8.53865 6.765 0.689425 3.84224 2.7637C1.34365 4.93228 2.44218 19.5316 2.44218 23.6383C2.44218 32.1393 9.33358 39.0307 17.8346 39.0307C22.0518 39.0307 25.873 37.3347 28.6531 34.5875C31.4771 31.7971 28.6531 33.1619 29.1092 23.8123C29.1092 22.8424 28.9677 15.1307 29.1092 12.4929C29.1326 12.0568 31.0944 14.9174 32.5058 15.905C32.9098 16.1877 33.517 16.5333 33.7594 16.4353" stroke="#3B72E1" stroke-width="3.86087"/>
<path d="M52.0319 30.387L54.4696 30.9222" stroke="#3B72E1" stroke-width="2.5" stroke-linecap="round"/>
<path d="M27.9801 30.387L25.5424 30.9222" stroke="#3B72E1" stroke-width="2.5" stroke-linecap="round"/>
<path d="M51.2072 33.0401L53.6449 33.5754" stroke="#3B72E1" stroke-width="2.5" stroke-linecap="round"/>
<path d="M28.8049 33.0401L26.3672 33.5754" stroke="#3B72E1" stroke-width="2.5" stroke-linecap="round"/>
</svg>
