<svg width="63" height="63" viewBox="0 0 63 63" fill="none" xmlns="http://www.w3.org/2000/svg">
<path d="M52.2196 20.5694V51.4697C52.2196 52.022 51.7719 52.4697 51.2196 52.4697H10.722C10.1697 52.4697 9.72202 52.022 9.72202 51.4697V20.6013C9.72202 20.26 9.89615 19.9422 10.1839 19.7585L31.0026 6.46642C31.3383 6.25208 31.7693 6.2574 32.0996 6.47998L51.7784 19.7401C52.0542 19.926 52.2196 20.2368 52.2196 20.5694Z" fill="white" stroke="#3B72E1" stroke-width="2"/>
<path d="M39.223 40.9118C39.223 45.8985 35.4109 48.2144 30.7147 46.157C25.9134 48.0725 22.0186 45.8985 22.0186 40.9118C22.0186 38.4739 22.9294 37.3068 25.0476 36.349C25.2526 33.7241 28.2599 31.8825 30.7147 31.8825C33.1696 31.8825 35.136 33.7241 35.8876 36.349C38.0399 37.094 39.223 38.4739 39.223 40.9118Z" fill="#F07862"/>
<ellipse cx="34.1526" cy="27.2351" rx="2.75851" ry="4.24123" fill="#F07862"/>
<ellipse cx="26.6712" cy="27.2351" rx="2.75851" ry="4.24123" fill="#F07862"/>
<ellipse rx="2.14156" ry="3.33597" transform="matrix(0.968072 -0.250674 0.294975 0.955505 20.6048 31.9476)" fill="#F07862"/>
<ellipse rx="2.14156" ry="3.33597" transform="matrix(-0.968072 -0.250674 -0.294975 0.955505 40.0475 31.9476)" fill="#F07862"/>
<path d="M0.0177307 19.4718C0.0177307 17.804 0.931489 16.2703 2.39816 15.4762L25.8212 2.79574C28.7326 1.21957 32.2355 1.18654 35.1761 2.70751L59.8739 15.4818C61.3977 16.27 62.3547 17.8423 62.3547 19.5579V19.5579C62.3547 22.9969 58.7119 25.214 55.6573 23.6341L35.1761 13.0407C32.2355 11.5197 28.7326 11.5528 25.8212 13.1289L6.72432 23.4674C3.69701 25.1063 0.0177307 22.9143 0.0177307 19.4718V19.4718Z" fill="#3B72E1"/>
<rect x="7.98706" y="53.4697" width="45.7802" height="8.77132" rx="3" fill="#3B72E1"/>
<path d="M7.98706 56.4697C7.98706 54.8965 9.19801 53.6061 10.7387 53.4798C10.9035 53.4663 11.069 53.4834 11.2322 53.5106L53.1774 60.5069C53.3405 60.5341 53.4312 60.6283 53.3511 60.773C53.096 61.2337 52.2476 62.241 50.7672 62.241H10.9871C9.33021 62.241 7.98706 60.8979 7.98706 59.241V56.4697Z" fill="white" fill-opacity="0.12"/>
</svg>
