<svg width="33" height="34" viewBox="0 0 33 34" fill="none" xmlns="http://www.w3.org/2000/svg">
<path fill-rule="evenodd" clip-rule="evenodd" d="M16.2937 3.11995C17.2054 3.11995 17.9444 3.87547 17.9444 4.80745V22.5263C17.9444 23.4582 17.2054 24.2138 16.2937 24.2138C15.382 24.2138 14.6429 23.4582 14.6429 22.5263V4.80745C14.6429 3.87547 15.382 3.11995 16.2937 3.11995Z" fill="#3B72E1"/>
<path fill-rule="evenodd" clip-rule="evenodd" d="M16.6778 3.83954C17.4246 4.3741 17.6061 5.42634 17.0831 6.18977L11.8754 13.7925C11.3525 14.5559 10.3232 14.7415 9.57634 14.207C8.8295 13.6724 8.648 12.6201 9.17094 11.8567L14.3786 4.25395C14.9016 3.49052 15.9309 3.30498 16.6778 3.83954Z" fill="#3B72E1"/>
<path fill-rule="evenodd" clip-rule="evenodd" d="M15.8884 3.92368C16.6352 3.38912 17.6646 3.57466 18.1875 4.3381L23.3951 11.9409C23.9181 12.7043 23.7366 13.7566 22.9898 14.2911C22.2429 14.8257 21.2136 14.6402 20.6906 13.8767L15.483 6.27391C14.9601 5.51048 15.1415 4.45824 15.8884 3.92368Z" fill="#3B72E1"/>
<path fill-rule="evenodd" clip-rule="evenodd" d="M3.5 26.745H28.6747V30.1199H3.5V26.745Z" fill="#3B72E1"/>
<path fill-rule="evenodd" clip-rule="evenodd" d="M3.5 28.8544V20.4169H6.80159V28.8544H3.5Z" fill="#3B72E1"/>
<path fill-rule="evenodd" clip-rule="evenodd" d="M26.1984 30.1199V20.4169H29.5V30.1199H26.1984Z" fill="#3B72E1"/>
</svg>
