<svg width="33" height="36" viewBox="0 0 33 36" fill="none" xmlns="http://www.w3.org/2000/svg">
<path d="M29.9236 30.2215C29.9236 31.6817 29.5728 32.4894 29.1373 32.9832C28.6863 33.4945 27.9577 33.8821 26.7884 34.1263C25.613 34.3718 24.1523 34.4404 22.4004 34.4371C21.5841 34.4356 20.7279 34.4189 19.8248 34.4013C19.7676 34.4002 19.7102 34.399 19.6527 34.3979C18.6911 34.3792 17.6817 34.3607 16.6451 34.3607C15.6086 34.3607 14.5992 34.3792 13.6376 34.3979C13.58 34.399 13.5226 34.4002 13.4654 34.4013C12.5623 34.4189 11.7061 34.4356 10.8898 34.4371C9.13795 34.4404 7.67723 34.3718 6.50183 34.1263C5.33251 33.8821 4.60393 33.4945 4.15292 32.9832C3.71742 32.4894 3.36661 31.6816 3.36661 30.2215C3.36661 24.4834 9.04567 19.3918 16.6451 19.3918C24.2446 19.3918 29.9236 24.4834 29.9236 30.2215Z" fill="#3B72E1" stroke="#3B72E1" stroke-width="3"/>
<path d="M16.6451 18.436C21.0633 18.436 24.6451 14.8547 24.6451 10.4366C24.6451 6.01854 21.0633 2.43724 16.6451 2.43724C12.227 2.43724 8.64511 6.01854 8.64511 10.4366C8.64511 14.8547 12.227 18.436 16.6451 18.436Z" fill="#3B72E1" stroke="#3B72E1" stroke-width="3"/>
<path d="M21.0491 25.1752C27.2705 19.3285 31.3541 30.6563 21.0491 34.8073C10.8601 30.6853 14.8338 19.3781 21.0491 25.1752Z" fill="#EEEEEE"/>
</svg>
